<?xml version="1.0" encoding="UTF-8" standalone="no"?>
<!-- Created with Inkscape (http://www.inkscape.org/) -->

<svg
   xmlns:dc="http://purl.org/dc/elements/1.1/"
   xmlns:cc="http://creativecommons.org/ns#"
   xmlns:rdf="http://www.w3.org/1999/02/22-rdf-syntax-ns#"
   xmlns:svg="http://www.w3.org/2000/svg"
   xmlns="http://www.w3.org/2000/svg"
   xmlns:sodipodi="http://sodipodi.sourceforge.net/DTD/sodipodi-0.dtd"
   xmlns:inkscape="http://www.inkscape.org/namespaces/inkscape"
   width="388.23624mm"
   height="126.60416mm"
   viewBox="0 0 388.23624 126.60416"
   version="1.1"
   id="svg8"
   inkscape:version="0.92.3 (2405546, 2018-03-11)"
   sodipodi:docname="MutualAid(3).svg">
  <defs
     id="defs2" />
  <sodipodi:namedview
     id="base"
     pagecolor="#ffffff"
     bordercolor="#666666"
     borderopacity="1.0"
     inkscape:pageopacity="0.0"
     inkscape:pageshadow="2"
     inkscape:zoom="0.7"
     inkscape:cx="944.42572"
     inkscape:cy="452.02298"
     inkscape:document-units="mm"
     inkscape:current-layer="layer1"
     showgrid="false"
     fit-margin-top="0"
     fit-margin-left="0"
     fit-margin-right="0"
     fit-margin-bottom="0"
     inkscape:window-width="1920"
     inkscape:window-height="1031"
     inkscape:window-x="0"
     inkscape:window-y="25"
     inkscape:window-maximized="1" />
  <metadata
     id="metadata5">
    <rdf:RDF>
      <cc:Work
         rdf:about="">
        <dc:format>image/svg+xml</dc:format>
        <dc:type
           rdf:resource="http://purl.org/dc/dcmitype/StillImage" />
        <dc:title></dc:title>
      </cc:Work>
    </rdf:RDF>
  </metadata>
  <g
     inkscape:label="Layer 1"
     inkscape:groupmode="layer"
     id="layer1"
     transform="translate(-494.09593,249.2499)">
    <path
       style="fill:#ff914d;fill-opacity:1;stroke-width:1.00000012"
       d="m 3245.0254,-516.46875 -2.9492,1.02734 -2.9492,1.02735 -2.6504,4.00586 -2.6485,4.0039 -1.5508,-1.28711 -1.5507,-1.28711 -0.7832,-2.0332 -0.7852,-2.03516 -2.1035,4.83204 -2.1055,4.83398 0.016,3.16602 0.016,3.16796 1.4082,6 1.4082,6 3.289,2.75 3.2871,2.75 h 3.8868 v 0 h 3.8867 l 3.3106,-1.57031 3.3086,-1.57226 1.8027,-1.99024 1.8027,-1.99219 1.0762,-6.57617 1.0762,-6.57617 -0.584,-5.30859 -0.5859,-5.3086 -1.9512,-2.16797 -1.9551,-2.16796 -2.2109,-0.84571 z m -955.5762,0.30664 -1.5,0.1543 -1.5,0.15429 -1.6875,0.15235 -1.6875,0.15234 -3.1836,4.4336 -3.1836,4.43164 -1.8789,-1.17188 -1.8789,-1.17383 v -1.81836 -1.81836 l -1.0156,0.62696 -1.0137,0.62695 -1.4863,3.55469 -1.4844,3.55273 v 3.82813 3.83008 l 1.1328,5.28125 1.1328,5.28125 3.2676,3.26757 3.2676,3.26758 4.3496,-0.0156 v -0.002 l 4.3496,-0.0156 4,-2.26367 4,-2.26563 1.3692,-2.85351 1.3691,-2.85352 0.5195,-8.32422 0.5196,-8.32422 -1.2715,-3.0664 -1.2696,-3.06641 -2.6171,-1.78125 z m 523,0 -1.5,0.1543 -1.5,0.15429 -1.6875,0.15235 -1.6875,0.15234 -3.1836,4.4336 -3.1836,4.43164 -1.8789,-1.17188 -1.8789,-1.17383 v -1.81836 -1.81836 l -1.0156,0.62696 -1.0137,0.62695 -1.4863,3.55469 -1.4844,3.55273 v 3.82813 3.83008 l 1.1328,5.28125 1.1328,5.28125 3.2676,3.26757 3.2676,3.26758 4.3496,-0.0156 v -0.002 l 4.3496,-0.0156 4,-2.26367 4,-2.26563 1.3692,-2.85351 1.3691,-2.85352 0.5195,-8.32422 0.5196,-8.32422 -1.2715,-3.0664 -1.2696,-3.06641 -2.6191,-1.78125 z m 357.9453,2.61523 -2.1172,1.48243 -2.1191,1.48437 -2.6914,4.5918 -2.6914,4.59375 -1.9121,-1.73047 -1.9141,-1.73242 v -2.4043 -2.4043 l -1.1015,0.68164 -1.1016,0.68165 -1.5625,3.62695 -1.5625,3.6289 -0.5859,6.91993 -0.586,6.91992 -1.25,0.41406 -1.25,0.41211 v -10.02344 -10.02539 l -0.75,-0.41992 -0.75,-0.42187 -2.7617,-0.66016 -2.7617,-0.66016 -0.918,2.27344 -0.9199,2.27148 -0.6856,3 -0.6855,3 -1.8184,-4.19531 -1.8183,-4.19336 -4.1934,-1.1289 -4.1914,-1.12891 -1.0176,1.01758 -1.0156,1.01562 -1.8223,9.30664 -1.8222,9.30664 -0.6817,10.64649 -0.6797,10.64453 0.6153,1.60547 0.6152,1.60351 h 1.9199 1.9102 l 2.1562,-1.75 2.1582,-1.75 1.0743,-7.25 1.0742,-7.25 0.6289,0.0547 0.6289,0.0566 3.5,7.19532 3.5,7.19335 h 2.4453 2.4434 l 1.8769,-3.21484 1.877,-3.21484 v -5.53516 -5.53516 h 1.4062 1.4063 l 1.4043,2.25 1.4023,2.25 0.6797,2.90821 0.6777,2.91015 3.2813,3.28125 3.2832,3.28125 2.748,0.69141 2.75,0.68945 4.1348,-1.23828 4.1348,-1.23828 3.6328,-3.64258 3.6328,-3.64258 1.1426,-6.58203 1.1406,-6.58203 v -3.70312 -3.70313 l 1.9785,1.0586 1.9785,1.05859 -0.5136,14.72656 -0.5118,14.72656 2.0332,-2.36132 2.0352,-2.36133 0.012,-2.63867 0.012,-2.63868 1.0411,-3.75 1.041,-3.75 h 2.3437 2.3438 l 3.8593,-1.76757 3.8594,-1.76758 6.5,-3.74609 6.5,-3.74415 2.9805,-2.45898 2.9805,-2.45898 -3.8457,-3.93946 -3.8457,-3.9375 -4.5762,-1.15234 -4.5742,-1.15235 h -6.1954 -6.1953 l -5.8144,2.45118 -5.8164,2.45312 -1.3653,-2.64062 -1.3652,-2.63868 -2.1074,-2.25 -2.1074,-2.25 h -3.1036 z m -808.7851,0.69727 -2.8594,3.19922 -2.8594,3.19922 0.5879,0.95312 0.5899,0.95117 h -0.9825 -0.9804 l -1.0254,3.25 -1.0254,3.25 -1.1485,6 -1.1484,6 -1.3183,7.71876 -1.3184,7.71874 0.5156,1.97461 0.5176,1.97461 2.1465,0.44336 2.1484,0.44141 3,-0.13672 3,-0.13477 0.875,-7.80273 0.875,-7.80078 3.125,0.66797 3.125,0.66992 0.1153,0.13281 0.1132,0.13281 1.9766,6.44727 1.9746,6.44727 1.6406,1.03515 1.6426,1.03516 1.6875,-1.68555 1.6875,-1.6875 -1.166,-6.79687 -1.1641,-6.79493 -0.6093,-7 -0.6114,-7 -1.5117,-5.41406 -1.5117,-5.41406 -2.2969,-2.29492 -2.2949,-2.29688 -2.7559,-0.6914 z m -401.5293,0.30078 -2.4766,0.94141 -2.4785,0.94336 -3.25,4.80664 -3.25,4.80859 -0.332,0.41016 -0.3321,0.41211 -2.0058,-1.81641 -2.0059,-1.81445 v -2.5 -2.5 l -1.9394,1.75586 -1.9414,1.75586 -1.5586,4.57617 -1.5606,4.57812 v 3.87305 3.875 l 1.586,6.97266 1.5859,6.97265 2.6152,3.10743 2.6133,3.10742 3.0508,1.32812 3.0488,1.32813 3,0.0312 v -0.002 l 3,0.0293 5,-2.34766 5,-2.3496 1.7051,-1.91993 1.7051,-1.92187 1.5449,-5.92969 1.5449,-5.93164 v -7.72461 -7.72461 l -0.8887,-2.33789 -0.8886,-2.33789 -3.3008,-3.22656 -3.3008,-3.22852 h -2.7461 z m -33.1309,0.002 -2.0469,2.25 -2.0468,2.25 -2.0293,2.10743 -2.0313,2.10742 -2.3496,3.89258 -2.3515,3.89257 -1.0723,-3 -1.0703,-3 -0.8516,-1.5 -0.8516,-1.5 -2.6718,-0.31835 -2.6719,-0.31836 -1.5391,3.68554 -1.541,3.68555 0.5078,1.31836 0.5059,1.31836 -0.8594,0.31445 -0.8594,0.31445 -0.7246,13.85352 -0.7265,13.85547 1.3906,0.87891 1.3906,0.88086 4.7285,0.0156 v 0 l 4.7285,0.0156 0.6035,-2.75 0.6016,-2.75 0.3222,-1.08398 0.3223,-1.08594 -1.2207,-7.18359 -1.2207,-7.18359 0.4063,-0.4043 0.4043,-0.40625 4.1601,1.46875 4.1602,1.46875 2.1152,-0.53125 2.1172,-0.5293 0.6328,4.625 0.6348,4.625 0.014,3.60938 0.016,3.61132 0.6035,2.25 0.6035,2.25 h 1.3594 1.3613 l 1.6426,-2.50585 1.6426,-2.50782 0.5371,-8.24218 0.539,-8.24415 0.047,-11.81445 0.045,-11.81445 -1.4531,-0.91992 -1.4551,-0.91992 -2.25,-0.0156 z m 104.2949,0 -3.1074,1.08204 -3.1094,1.08398 -0.5351,1.66602 -0.5371,1.66796 -2.7539,3.1836 -2.7559,3.18164 -2.3652,-1.93555 -2.3653,-1.9375 0.5469,-2.08789 0.5449,-2.08984 -2.0136,1.82226 -2.0118,1.82227 -1.4707,3.51953 -1.4707,3.51953 -0.016,5.50195 -0.016,5.5 1.0937,5 1.0938,5 1.1543,2.88282 1.1523,2.88476 4.5196,2.86524 4.5195,2.86718 h 2.4375 2.4355 l 3.8731,-1.1621 3.873,-1.16016 3.8672,-3.30859 3.8653,-3.3086 1.1621,-4.61523 1.1621,-4.61328 0.5742,-7.16602 0.5742,-7.16602 -1.1348,-4.19726 -1.1347,-4.19727 -3.7031,-3.05273 -3.7032,-3.05274 h -2.123 z m 169.836,0 -2.4395,0.92774 -2.4375,0.92773 -2.1269,3.32227 -2.127,3.32226 -1.4082,1.81836 -1.4101,1.81641 -2.0918,-1.78906 -2.0899,-1.78906 v -1.82227 -1.82227 l -1.25,0.19727 -1.25,0.19727 -3.5644,-1.58985 -3.5664,-1.58984 -3.6563,0.82617 -3.6562,0.82422 -4.2774,2.61914 -4.2793,2.61914 -2.25,1.61523 -2.25,1.61329 v -2.00586 -2.00391 l -2.75,-0.57227 -2.75,-0.57226 -2.25,2.51172 -2.25,2.50976 v 16.46875 16.47071 l 2.5645,0.97461 2.5664,0.9746 h 3.3164 3.3164 l 1.1172,-4.44335 1.1191,-4.44141 v -2.05859 -2.05665 h 0.8926 0.8945 l 0.5723,1.49219 0.5723,1.49024 4.7832,6.00195 4.7851,6 0.6914,0.008 0.6914,0.008 0.5957,-0.96289 0.5957,-0.96484 -1.6074,-6.19922 -1.6055,-6.19922 -3.5078,-6.96484 -3.5078,-6.96484 3.8281,-3.94922 3.8262,-3.94727 4.7969,-3.54297 4.7969,-3.54297 0.4785,0.47852 0.4785,0.47656 -2.0254,4.72461 -2.0254,4.72461 v 3.14453 3.14453 l 1.7168,7.99024 1.7168,7.98828 3.7285,3.72851 3.7266,3.72657 3.6523,0.68554 3.6524,0.68555 3.6543,-1.11523 3.6523,-1.11328 3.1953,-1.9668 3.1973,-1.96875 1.75,-2.67188 1.75,-2.67187 1.2285,-7.625 1.2285,-7.62696 -0.539,-5.5 -0.5371,-5.5 -1.9043,-3.14648 -1.9043,-3.14648 -2.4473,-1.60352 -2.4473,-1.60352 h -2.4707 z m 234.4531,0 -4.543,4.85352 -4.541,4.85352 -1.832,3.37109 -1.832,3.37109 -2.045,-4.72461 -2.0449,-4.72461 h -2.25 -2.25 l -1.1582,1.39454 -1.1582,1.39453 -1.3887,7.85547 -1.3867,7.85546 -0.5625,9.19336 -0.5625,9.19336 1.5567,1.55664 1.5566,1.55664 h 4.4512 4.4492 l 1.1562,-2.5371 1.1543,-2.53711 -1.1562,-8.65039 -1.1582,-8.64844 0.373,-0.37305 0.3711,-0.37109 3.8477,1.60742 3.8457,1.60547 2.1523,-0.53906 2.1524,-0.54102 0.5586,3.24219 0.5586,3.24218 0.6054,5 0.6055,5 0.4648,2.25 0.4649,2.25 h 1.4453 1.4453 l 1.0957,-2.04687 1.0938,-2.04687 0.9082,-5.57813 0.9082,-5.58008 -1.0703,-2.00195 -1.0723,-2.00195 1.3535,-0.83594 1.3535,-0.83789 -0.2246,-11.65235 -0.2246,-11.65234 -1.1484,-1.38281 -1.1465,-1.38282 h -2.586 z m 74.5469,0 -2.4395,0.92774 -2.4375,0.92578 -2.1269,3.32422 -2.127,3.32226 -1.4082,1.81836 -1.4101,1.81641 -2.0918,-1.78906 -2.0899,-1.79102 v -1.77734 -1.77735 h -1.0215 -1.0215 l -1.1308,2.48047 -1.1289,2.48047 -2.5996,-0.5625 -2.5977,-0.56445 -2.8984,-0.91602 -2.9004,-0.91797 h -5.166 -5.168 l -5.8769,1.08594 -5.877,1.08594 -5.4922,2.05469 -5.4902,2.05469 2.1972,1.78124 2.1993,1.7793 0.9707,0.33008 0.9726,0.32812 1.041,13 1.0411,13 0.4921,2.25 0.4942,2.25 h 1.9805 v 0.004 h 1.9804 v -1.44922 -1.45117 l 1.6074,-0.89844 1.6075,-0.90039 0.1425,-12.64843 0.1426,-12.64844 0.5,-0.0918 0.5,-0.0918 5.0586,-0.2207 5.0567,-0.22266 1.2285,6.5625 1.2285,6.56055 1.5898,5.73242 1.5899,5.73047 0.7285,-0.44922 0.7265,-0.45117 1.125,2.46875 1.125,2.46875 h 1.5528 1.5527 l 0.5469,-1.42383 0.5469,-1.42382 -1.6836,-14.08008 -1.6817,-14.08203 2.3536,-1.90821 2.3554,-1.9082 0.3301,0.32812 0.332,0.32813 -1.0801,2.01953 -1.082,2.01953 v 3.29297 3.29297 l 1.7168,7.99023 1.7168,7.98828 3.7285,3.72852 3.7266,3.72656 3.6523,0.68555 3.6524,0.68555 3.6523,-1.11328 3.6543,-1.11524 3.1953,-1.9668 3.1953,-1.96875 1.7442,-2.66015 1.7441,-2.66211 1.2696,-7.97461 1.2675,-7.97266 -0.5683,-4.16211 -0.5684,-4.16406 0.5274,0.5 0.5273,0.5 0.1426,1 0.1445,1 1.9942,2.12305 1.9941,2.12109 -0.3047,14.13086 -0.3047,14.12891 0.627,-0.002 0.6289,-0.002 1.0097,-1.25 1.0118,-1.25 0.7265,-5.5 0.7266,-5.5 0.9199,-1.75 0.9199,-1.75 h 2.6133 2.6133 l 8.6016,-4.65625 8.6015,-4.6543 3.75,-2.92968 3.75,-2.92774 v -1.3125 -1.3125 l -3.4726,-3.04883 -3.4727,-3.04882 -3.7773,-1.04883 -3.7774,-1.04883 -6.8301,-0.008 -6.8281,-0.008 -6.5605,2.625 -6.5625,2.625 -1.0371,-1.875 -1.0391,-1.875 -2.9277,-2.75 -2.9258,-2.75 h -2.8301 z m 179.0469,0 -2.5469,3.02735 -2.5469,3.02539 0.6289,1.63867 0.627,1.63672 -1.0547,-0.65234 -1.0547,-0.65235 -1.0957,4.35938 -1.0977,4.35742 -2.0156,10.37891 -2.0156,10.38085 v 4.17969 4.18164 l 2.25,0.43164 2.25,0.4336 3.1817,0.13672 3.1816,0.13671 0.7012,-8.05078 0.7031,-8.05078 3.1172,0.67188 3.1152,0.67187 0.4531,1.12891 0.4532,1.1289 2.0468,6 2.0469,6 2.2539,0.32032 2.2559,0.32031 0.6152,-1.60742 0.6172,-1.60742 -2.1074,-16.31055 -2.1094,-16.31055 -1.5391,-3.68359 -1.539,-3.6836 -3.2227,-1.96484 -3.2246,-1.96484 -1.6601,-0.004 z m 322.1093,0 -3.1093,1.08399 -3.1075,1.08203 -0.5371,1.66797 -0.5351,1.66601 -2.7539,3.1836 -2.7559,3.18359 -2.3652,-1.9375 -2.3653,-1.9375 0.5508,-2.11133 0.5527,-2.11132 -2.5097,2.35937 -2.5117,2.35742 -0.9746,-1.74218 -0.9766,-1.74415 h -5.4922 -5.4922 l -7.5957,1.56836 -7.5976,1.56836 -4.4629,1.68164 -4.4629,1.68164 0.053,1 0.051,1 3.1016,0.63282 3.0996,0.63476 0.541,0.54102 0.541,0.54101 0.9219,11.82422 0.9218,11.82617 0.5313,3.25 0.5332,3.25 h 1.9531 1.9551 v -0.92968 -0.92774 l 1.5898,-1.58984 1.5899,-1.58984 0.1601,-12.22266 0.1602,-12.22461 7,-2.07227 7,-2.07226 2.3496,-0.7832 2.3477,-0.78516 -0.67,2.11133 -0.6699,2.11133 0.012,5.23632 0.012,5.23828 1.0878,5 1.0899,5 1.1543,2.88282 1.1523,2.88476 4.5196,2.86524 4.5195,2.86718 h 2.4375 2.4258 l 3.875,-1.16015 3.873,-1.16211 3.8653,-3.30859 3.8671,-3.3086 1.1622,-4.61523 1.1601,-4.61328 0.5762,-7.16602 0.5742,-7.16602 -1.1348,-4.19726 -1.1347,-4.19727 -3.7032,-3.05273 -3.7031,-3.05274 h -2.123 z m 88.8848,0 -2.5469,3.02735 -2.5469,3.02539 0.627,1.63867 0.6289,1.63672 -1.0547,-0.65234 -1.0547,-0.65235 -1.0957,4.35938 -1.0976,4.35742 -2.0157,10.37891 -2.0156,10.38085 v 4.17969 4.18164 l 2.25,0.43164 2.25,0.4336 3.1758,0.13672 h 0.01 l 3.1757,0.13671 0.7012,-8.05078 0.7031,-8.05078 3.1153,0.67188 3.1172,0.67187 0.4531,1.12891 0.4531,1.1289 2.0469,6 2.0469,6 2.2539,0.32032 2.2558,0.32031 0.6153,-1.60742 0.6171,-1.60742 -2.1074,-16.31055 -2.1093,-16.31055 -1.5391,-3.68359 -1.5391,-3.6836 -3.2226,-1.96484 -3.2246,-1.96484 -1.6602,-0.004 z m 219.959,0 -2.4395,0.92774 -2.4375,0.92578 -2.1269,3.32422 -2.127,3.32226 -1.4082,1.81836 -1.4101,1.81641 -2.0918,-1.78906 -2.0899,-1.79102 v -1.77734 -1.77735 h -1.0215 -1.0215 l -1.1308,2.48047 -1.1289,2.48047 -2.5996,-0.5625 -2.5977,-0.56445 -2.8984,-0.91602 -2.9004,-0.91797 h -5.166 -5.168 l -5.8769,1.08594 -5.877,1.08594 -5.4922,2.05469 -5.4902,2.05469 2.1972,1.78124 2.1993,1.7793 0.9707,0.33008 0.9726,0.32812 1.041,13 1.0411,13 0.4921,2.25 0.4942,2.25 h 1.9805 1.9804 v -1.45117 -1.45117 l 1.6074,-0.89844 1.6075,-0.90039 0.1425,-12.64843 0.1426,-12.64649 0.5,-0.0937 0.5,-0.0918 5.0586,-0.2207 5.0567,-0.2207 1.2285,6.56054 1.2285,6.5625 1.5898,5.73047 1.5918,5.73047 0.7266,-0.44922 0.7265,-0.44922 1.125,2.46876 1.125,2.46874 h 1.5528 1.5527 l 0.5469,-1.42578 0.5469,-1.42382 -1.6836,-14.08008 -1.6817,-14.08008 2.3555,-1.91016 2.3535,-1.9082 0.332,0.32812 0.3301,0.32813 -1.0801,2.01953 -1.082,2.02149 v 3.29296 3.29297 l 1.7168,7.98828 1.7168,7.99024 3.7285,3.72656 3.7266,3.72852 3.6523,0.68554 3.6524,0.6836 3.6543,-1.11328 3.6523,-1.11328 3.1953,-1.96876 3.1973,-1.96679 1.75,-2.67188 1.75,-2.67187 1.2285,-7.62696 1.2285,-7.625 -0.539,-5.5 -0.5371,-5.5 -1.9043,-3.14648 -1.9043,-3.14648 -2.4473,-1.60352 -2.4473,-1.60352 h -2.4687 z m -1031.9942,1.73633 1.1133,1.11328 1.1133,1.11329 0.7754,6.26757 0.7773,6.26953 -1.4824,5.23633 -1.4824,5.23633 -2.9258,1.51367 -2.9258,1.51367 h -2.0273 -2.0254 l -1.6133,-2.46289 -1.6133,-2.46093 -0.4355,-3.78907 -0.4375,-3.78711 3.2773,-5.96289 3.2754,-5.96484 3.3184,-1.91797 z m 523,0 1.1133,1.11328 1.1133,1.11329 0.7754,6.26757 0.7773,6.26953 -1.4824,5.23633 -1.4824,5.23633 -2.9258,1.51367 -2.9258,1.51367 h -2.0273 -2.0254 l -1.6133,-2.46289 -1.6133,-2.46093 -0.4375,-3.78907 -0.4355,-3.78711 3.2773,-5.96289 3.2754,-5.96484 3.3184,-1.91797 z m 433.8477,0.043 1.3555,0.51953 1.3554,0.52149 0.6114,7.30468 0.6132,7.30665 -1.0859,4.31054 -1.084,4.3086 -2.5097,1.97461 -2.5098,1.9746 h -2.3262 -2.3262 l -1.9902,-2.13476 -1.9883,-2.13672 -0.5957,-2.70703 -0.5937,-2.70703 2.0468,-5.4707 2.0469,-5.47266 2.043,-2.19141 2.043,-2.19336 2.4472,-1.60351 z m -1163.8867,0.0547 -1.7266,0.33203 -1.7265,0.33398 -0.8321,3 -0.832,3 -0.2129,6.75196 -0.2148,6.7539 -1.7754,0.56446 -1.7774,0.56445 v 0.89649 0.89843 l 1.8555,0.99219 1.8574,0.99414 1.25,7.79102 1.25,7.79296 0.9219,1.73438 0.9199,1.73633 3.2227,-0.27735 3.2226,-0.27734 -0.3164,-9.56641 -0.3164,-9.5664 3.793,-0.61524 3.7929,-0.61718 0.7032,0.72461 0.7031,0.7246 0.2344,6.5 0.2324,6.5 0.9258,3 0.9238,3 0.3809,1.25 0.3808,1.25 2.2813,-0.0156 2.2812,-0.0156 1.3633,-0.86329 1.3613,-0.86328 0.8438,-4.37109 0.8457,-4.3711 0.043,-7.71484 0.043,-7.71484 2,-1.07227 2,-1.07031 v -3.46484 -3.4629 h -1.0488 -1.0508 l 0.3008,-4.75 0.2988,-4.75 -2.7304,-0.31445 -2.7305,-0.31445 -2.5195,2.51758 -2.5196,2.51953 v 3.93945 3.9375 l -1.584,0.60938 -1.5859,0.60742 -5.1641,0.60937 -5.166,0.60743 0.332,-6.53321 0.3321,-6.5332 -2.5332,-1.6582 z m 519.8867,0.043 -0.5879,1.5332 -0.5879,1.53125 0.959,19.01172 0.959,19.01172 1.2597,1.51758 1.2598,1.51757 h 1.3086 1.3086 l 2.3184,-3.25 2.3183,-3.25 0.1192,-10.5 0.1171,-10.5 -1.6308,-8 -1.6328,-8 -3.7442,-0.31054 z m 310,0 -0.5879,1.5332 -0.5879,1.53125 0.959,19.01172 0.959,19.01172 1.2597,1.51758 1.2598,1.51757 h 1.3086 1.3086 l 2.3184,-3.25 2.3183,-3.25 0.1192,-10.5 0.1171,-10.5 -1.6308,-8 -1.6328,-8 -3.7442,-0.31054 z m -690.6543,0.0195 -1.1855,1.42773 -1.1836,1.42774 1.1171,19.37304 1.1172,19.375 1.0254,1.25 1.0254,1.25 h 1.3379 1.3379 l 1.9453,-2.08593 1.9434,-2.08789 0.6718,-3.57813 0.6719,-3.58008 -0.2656,-9.58398 -0.2656,-9.58399 -1.6192,-6.5 -1.6191,-6.5 -3.0274,-0.30078 z m 114.916,0.10351 -1.0996,1.32422 -1.0996,1.32422 1.291,19.47266 1.293,19.47266 0.7441,1.20312 0.7442,1.20312 h 1.0058 1.0078 l 1.8535,-0.99414 1.8536,-0.99218 1.2597,-3.75782 1.2598,-3.75586 -0.2168,-10 -0.2168,-10 -0.8945,-3.5 -0.8965,-3.5 -0.3125,-3 -0.3145,-3 -1.0039,-0.73632 -1.0039,-0.73438 -2.6269,-0.0156 z m 257.2539,0.5 -9.873,0.32227 -9.8731,0.32031 -2.3164,0.88086 -2.3164,0.88086 -0.9433,3.41211 -0.9415,3.41211 -0.164,11.10547 -0.166,11.10351 0.9472,3.78126 0.9453,3.78124 0.6055,2.68946 0.6035,2.68945 3.7461,0.31445 3.7461,0.3125 3.5,-0.76953 3.5,-0.77148 6,-1.59375 6,-1.5918 2.252,-1.06054 2.2519,-1.0586 -1.5488,-1.71094 -1.5488,-1.71093 -8.2032,1.82812 -8.2031,1.83008 -0.8262,-0.82617 -0.8281,-0.82617 -0.8984,-3.8711 -0.8985,-3.87305 -0.023,-2 -0.021,-2 5.9551,-1.75 5.9551,-1.75 h 1.5429 1.543 v -0.91992 -0.92187 l -3.0918,-0.67774 -3.0918,-0.67968 -4.5508,0.68164 -4.5488,0.68164 0.6426,-3.20703 0.6406,-3.20704 0.016,-3.625 0.016,-3.625 0.7812,-1.23242 0.7832,-1.23242 6.7324,-0.76758 6.7325,-0.76758 -0.2793,-1 z m 310,0 -9.873,0.32227 -9.8731,0.32031 -2.3164,0.88086 -2.3164,0.88086 -0.9433,3.41211 -0.9415,3.41211 -0.164,11.10547 -0.166,11.10351 0.9472,3.78126 0.9453,3.78124 0.6055,2.68946 0.6035,2.68945 3.7461,0.31445 3.7461,0.3125 3.5,-0.76953 3.5,-0.77148 6,-1.59375 6,-1.5918 2.252,-1.06054 2.2519,-1.0586 -1.5488,-1.71094 -1.5488,-1.71093 -8.2032,1.82812 -8.2031,1.83008 -0.8262,-0.82617 -0.8281,-0.82617 -0.8984,-3.8711 -0.8985,-3.87305 -0.023,-2 -0.021,-2 5.9551,-1.75 5.9551,-1.75 h 1.5429 1.543 v -0.91992 -0.92187 l -3.0918,-0.67774 -3.0918,-0.67968 -4.5488,0.68164 -4.5508,0.68164 0.6426,-3.20703 0.6406,-3.20704 0.016,-3.625 0.016,-3.625 0.7832,-1.23242 0.7812,-1.23242 6.7324,-0.76758 6.7325,-0.76758 -0.2793,-1 z m -147,0.27344 -7.9297,0.59571 -7.9316,0.5957 -0.8047,1.26758 -0.8047,1.26757 -0.014,2.81446 -0.016,2.8164 0.9727,1.81641 0.9707,1.81641 6.3672,3.07031 6.3652,3.07031 1.3652,1.64453 1.3653,1.64453 -1.7637,0.98633 -1.7637,0.98633 -3.4922,3.06641 -3.4902,3.0664 0.3008,3.05078 0.3027,3.05274 3.3887,1.9707 3.3887,1.97266 9.1113,0.67578 9.1113,0.67578 6.2754,0.15234 v -0.002 l 6.2753,0.15234 1.002,-2.63476 1.002,-2.63672 -1.6407,-2.50391 -1.6406,-2.5039 -7.6367,0.64844 -7.6348,0.64843 -1.8613,0.24024 -1.8613,0.24218 -1.0762,-1.6582 -1.0742,-1.65625 1.8847,-6.22265 1.8829,-6.22266 -2.1973,-3.81836 -2.1973,-3.81836 v -0.39062 -0.39063 l 8.75,-1.21094 8.75,-1.21093 2.2676,-0.47461 2.2656,-0.47266 -1.7949,-1.92773 -1.7949,-1.92579 -11.4707,-1.16406 z m 78,0.10156 -4.5,0.83594 -4.5,0.83399 -0.2969,4.53125 -0.2968,4.52929 2.0468,1.85157 2.0469,1.85156 v -0.59375 -0.59375 l 6.1914,3.76562 6.1934,3.76563 0.3906,1.17383 0.3926,1.17382 h -1.418 -1.416 l -4.2695,3.94141 -4.2696,3.94141 0.9336,2.79883 0.9317,2.79882 3.2851,1.91797 3.2832,1.91797 8.6368,0.71485 8.6347,0.71289 7,-0.12305 7,-0.1211 0.3184,-3.3164 0.3183,-3.31445 -1.1914,-1.43555 -1.1894,-1.4336 -4.6289,0.043 -4.627,0.043 -4.5,0.88867 -4.5,0.88868 -1.7793,-1.73829 -1.7793,-1.73828 2.2442,-6.23632 2.2441,-6.23438 -1.3672,-2.20898 -1.3672,-2.20704 -1.3672,-2.10546 -1.3691,-2.10547 9.2715,-1.22852 9.2695,-1.22851 2.2207,-0.51758 2.2207,-0.51758 -1.5136,-1.51367 -1.5157,-1.51367 -3.7051,-0.84375 -3.707,-0.84375 -12,-0.60352 z m -182.3281,0.9336 -0.9434,1.8457 -0.9433,1.8457 -1.252,8 -1.2519,8 -0.4082,2 -0.4082,2 -0.627,9.15235 -0.6269,9.15234 0.6132,1.59766 0.6133,1.59765 h 2.0762 2.0781 l 2.4531,-2.45507 2.4551,-2.45508 v -1.99609 -1.9961 l 1.1875,-5.29883 1.1856,-5.29883 0.3652,1.63282 0.3633,1.63281 3.2363,6.36719 3.2344,6.36718 2.1875,0.31641 2.1894,0.31641 1.9512,-3.20899 1.9512,-3.20898 0.5683,-4.60742 0.5704,-4.60743 0.1523,-10 0.1523,-10 -0.1464,-2.63671 -0.1485,-2.63672 -2.9765,-0.4375 -2.9766,-0.43555 -0.9199,0.57227 -0.92,0.57421 -1.2871,4.5 -1.2871,4.5 -0.955,-3.5957 -0.9551,-3.59765 -1.7383,-1.08399 -1.7383,-1.08594 -3.5371,-0.66406 z m 382,0 -0.9434,1.8457 -0.9433,1.8457 -1.252,8 -1.2519,8 -0.4082,2 -0.4082,2 -0.627,9.15235 -0.6269,9.15234 0.6132,1.59766 0.6133,1.59765 h 2.0762 2.0781 l 2.4531,-2.45507 2.4551,-2.45508 v -1.99609 -1.9961 l 1.1875,-5.29883 1.1856,-5.29883 0.3652,1.63282 0.3633,1.63281 3.2363,6.36719 3.2344,6.36718 2.1875,0.31641 2.1894,0.31641 1.9512,-3.20899 1.9512,-3.20898 0.5683,-4.60742 0.5704,-4.60743 0.1523,-10 0.1523,-10 -0.1484,-2.63671 -0.1465,-2.63672 -2.9765,-0.4375 -2.9766,-0.43555 -0.9199,0.57227 -0.92,0.57421 -1.2871,4.5 -1.2871,4.5 -0.955,-3.5957 -0.9551,-3.59765 -1.7383,-1.08399 -1.7383,-1.08594 -3.5371,-0.66406 z m -726.4258,0.0449 -1.0176,1.01758 -1.0156,1.01562 -1.8223,9.30664 -1.8222,9.30664 -0.6817,10.64649 -0.6797,10.64453 0.6153,1.60547 0.6152,1.60351 h 1.9199 1.9219 l 2.1563,-1.75 2.1582,-1.75 1.0742,-7.25 1.0742,-7.25 0.6289,0.0547 0.6289,0.0566 3.5,7.19532 3.5,7.19335 h 2.4434 2.4453 l 1.8652,-3.19726 1.8672,-3.19531 0.5742,-16.41211 0.5743,-16.41211 -0.8848,-0.50391 -0.8848,-0.5039 -2.7617,-0.66016 -2.7617,-0.66016 -0.918,2.27344 -0.9199,2.27148 -0.6856,3 -0.6855,3 -1.8184,-4.19531 -1.8203,-4.19336 -4.1914,-1.1289 z m -65.6758,0.14648 -1.0507,1.96485 -1.0508,1.96289 -1.5254,8.28711 -1.5235,8.28515 -0.6054,12.25 -0.6055,12.25 h 1.5801 v 0.004 h 1.582 l 2.4668,-0.9375 2.4668,-0.93945 1.0293,-3.31055 1.0273,-3.3125 0.6954,-5.48242 0.6953,-5.48242 3.2265,6.98828 3.2285,6.98828 1.5977,1.32617 1.5996,1.32617 1.8672,-0.59179 1.8672,-0.59375 1.6348,-3.42383 1.6328,-3.42578 0.6894,-13.92969 0.6895,-13.92969 -0.6328,-2.51953 -0.6328,-2.51953 -3.0293,-0.44531 -3.0274,-0.44531 -0.8926,1.08007 -0.8906,1.08008 -0.7598,4 -0.7597,4 -1.8496,-4.20898 -1.8496,-4.20899 -3.7305,-1.03515 -3.7305,-1.03516 -0.7148,-0.008 z m -242.1074,0.33985 -0.9766,1.17578 -0.9746,1.17383 -0.6308,3.1543 -0.6309,3.15624 h -0.7949 -0.7949 l -0.6289,-2.85742 -0.627,-2.85742 -2.2012,-1.17383 -2.2031,-1.17383 -2.957,-0.21874 -2.9551,-0.21876 -1.2012,2.5 -1.2011,2.5 -0.6192,4 -0.6172,4 -0.9746,6.5 -0.9726,6.5 -0.6328,7.6836 -0.6348,7.68359 0.6016,1.56641 0.6015,1.5664 h 1.4668 1.4668 l 2.4473,-0.93164 2.4492,-0.93164 1.0566,-4.81836 1.0547,-4.81836 0.6289,-3.86523 0.627,-3.86523 3.5918,7.59765 3.5918,7.59766 1.8886,0.59961 1.8887,0.59961 1.5078,-1.25 1.5059,-1.25 0.9062,-1.69531 0.9082,-1.69336 0.461,-2.88868 0.4609,-2.88672 0.6582,-10.78906 0.6602,-10.78906 -0.6524,-3.85742 -0.6523,-3.85938 -2.9492,-0.43164 z m 1176.0977,1.6875 0.9687,2.55078 0.9707,2.55078 v 5.04492 5.04297 l -2.4707,-0.62109 -2.4707,-0.61914 -3.7793,0.89648 -3.7793,0.89453 -1.75,0.72266 -1.75,0.72266 v -1.13868 -1.14062 l 2.3926,-4.7168 2.3906,-4.7168 1.8614,-1.68164 1.8593,-1.67968 2.7774,-1.05664 z m -1211.2578,1.02734 0.9882,1.22266 0.9883,1.22265 0.7012,9.05469 0.7012,9.05664 -1.1719,4.35157 -1.1719,4.35156 -2.8418,2.84375 -2.8418,2.84179 h -4.0918 -4.0918 l -1.9511,-3.21093 -1.9532,-3.20899 -0.6406,-2.91797 -0.6406,-2.91796 2.7656,-6.86915 2.7637,-6.86914 2.6601,-2.97656 2.6582,-2.97851 3.584,-1.49805 z m 241.1269,0.0215 0.7852,1.21093 0.7851,1.21289 1.0313,8 1.0332,8 -0.834,3.95704 -0.834,3.95898 -1.4961,3.15234 -1.4961,3.1543 -2.5,1.13867 -2.498,1.13867 h -3.3711 -3.3711 l -2.2071,-3.57226 -2.207,-3.57031 0.088,-4.38282 0.088,-4.38476 2.9434,-5.79492 2.9414,-5.79493 2.8457,-2.6875 2.8437,-2.68554 2.7149,-1.02539 z m 309,0 0.7852,1.21093 0.7851,1.21289 1.0313,8 1.0332,8 -0.834,3.95704 -0.834,3.95898 -1.4961,3.15234 -1.4961,3.1543 -2.5,1.13867 -2.498,1.13867 h -3.3711 -3.3711 l -2.2071,-3.57031 -2.207,-3.57226 0.088,-4.38282 0.088,-4.38281 2.9434,-5.79687 2.9414,-5.79493 2.8457,-2.6875 2.8437,-2.68554 2.7149,-1.02539 z m 810,0 0.7852,1.21093 0.7851,1.21289 1.0313,8 1.0332,8 -0.834,3.95704 -0.834,3.95898 -1.4961,3.15234 -1.4961,3.1543 -2.5,1.13867 -2.498,1.13867 h -3.3711 -3.3711 l -2.2071,-3.57031 -2.207,-3.57226 0.088,-4.38282 0.088,-4.38281 2.9434,-5.79687 2.9414,-5.79493 2.8457,-2.6875 2.8437,-2.68554 2.7149,-1.02539 z m -1290.2617,0.0996 1.1914,0.73632 1.1914,0.73633 1.002,8.82422 1.0019,8.82422 -1.584,5.45117 -1.584,5.45313 -2.5898,2.39843 -2.5879,2.40039 -3.6055,-0.0156 -3.6035,-0.0156 -1.0586,-0.73438 -1.0566,-0.73438 -1.6934,-2.47265 -1.6914,-2.47266 v -4.30273 -4.30274 l 3.3985,-6.72461 3.4003,-6.72461 2.3497,-2.18359 2.3515,-2.18359 2.584,-0.97852 z m 980,0 1.1914,0.73632 1.1914,0.73633 1.002,8.82422 1.0039,8.82422 -1.586,5.45117 -1.584,5.45313 -2.5898,2.39843 -2.5879,2.40039 -3.6055,-0.0156 -3.6035,-0.0156 -1.0586,-0.73438 -1.0566,-0.73438 -1.6934,-2.47265 -1.6914,-2.47266 v -4.30273 -4.30274 l 3.3985,-6.72461 3.4003,-6.72461 2.3497,-2.18359 2.3515,-2.18359 2.584,-0.97852 z m -455.668,4.5625 v 1.11718 1.11914 l -4.25,2.68555 -4.25,2.68555 -6.2285,2.82812 -6.2266,2.82617 h -0.4043 -0.4043 l 1.3379,-3.75 1.3379,-3.75 0.045,-1.6914 0.043,-1.69141 1.1133,-0.6875 1.1113,-0.6875 8.3887,-0.50195 z m 659,0.26171 v 0.63868 0.64062 l -1.75,1.38672 -1.75,1.38867 -8.7304,4.47266 -8.7286,4.47265 h -0.6269 v -0.002 h -0.627 l 0.6739,-1.75 0.6757,-1.75 1.1075,-4.13281 1.1074,-4.13086 5.0742,-0.60938 5.0742,-0.60937 4.25,-0.008 z m -852.75,4.84961 0.793,0.82422 0.793,0.82617 0.6953,4.75 0.6953,4.75 -0.8633,-0.0156 -0.8633,-0.0156 -1.332,-0.84571 -1.332,-0.84375 0.707,-4.71484 z m 329.4063,0.0937 1.0019,5.5293 1.002,5.52734 -0.5801,-0.11718 -0.5801,-0.11524 -1.8222,-0.4707 -1.8243,-0.47266 0.6758,-4.16211 0.6777,-4.16211 0.7247,-0.77734 z m 411,0 1.0019,5.5293 1.002,5.52734 -0.5801,-0.11718 -0.5801,-0.11524 -1.8222,-0.4707 -1.8243,-0.47266 0.6758,-4.16211 0.6777,-4.16211 0.7247,-0.77734 z m 72.7187,9.05664 h 0.2227 0.2207 l -1.3731,5.25 -1.373,5.25 -2.5918,2.25 -2.5918,2.25 h -3.3301 -3.3281 l -1.4512,-2.25 -1.4512,-2.25 -0.5546,-2.1914 -0.5547,-2.18945 4.9375,-1.06055 4.9394,-1.0586 4.1406,-2 z m -888.2695,9.87891 -5.7949,1.07031 -5.795,1.07227 -4.5078,2.23828 -4.5078,2.24023 -0.3242,1.75391 -0.3242,1.75586 2.3242,0.93164 2.3242,0.93164 1.0449,0.0625 1.045,0.0645 9.455,-2.39257 9.4551,-2.39453 2.8633,-0.6543 2.8613,-0.6543 -1.7324,-1.91406 -1.7344,-1.91602 -3.3261,-1.09765 z m 523,0 -5.7949,1.07227 -5.795,1.07031 -4.5078,2.23828 -4.5078,2.24023 -0.3242,1.75391 -0.3242,1.75586 2.3242,0.93164 2.3242,0.93164 1.0449,0.0625 1.045,0.0645 9.455,-2.39257 9.4551,-2.39453 2.8633,-0.6543 2.8613,-0.6543 -1.7324,-1.91406 -1.7344,-1.91602 -3.3261,-1.09765 z m 433.998,0 -5.5,1.01758 -5.5,1.01562 -4.8007,2.29493 -4.8028,2.29296 -0.291,1.57813 -0.2891,1.58008 2.2891,1.14258 2.291,1.14062 3,-0.54101 3,-0.54297 2,-0.41407 2,-0.41406 3.2403,-0.62695 3.2402,-0.62695 -0.543,-0.87696 -0.541,-0.875 1.4473,0.55469 1.4472,0.55469 4.2012,-1.13086 4.2012,-1.13086 -1.7168,-1.89844 -1.7188,-1.89844 -3.3261,-1.09765 z"
       transform="scale(0.26458333)"
       id="path1033"
       inkscape:connector-curvature="0" />
    <path
       style="fill:#f5f5f5;stroke-width:0"
       d="m 1948.5547,-942.04688 -1.9238,1.55665 -1.9219,1.55664 -1.2246,6.50976 -1.2227,6.51172 0.7852,13.93164 0.7851,13.93359 0.059,5.62696 0.059,5.62695 -5.25,2.25 -5.25,2.25 -7.5,4.35742 -7.5,4.35938 -3.6113,3.26562 -3.6113,3.26367 -4.4903,5.5 -4.4902,5.5 -5.5508,8 -5.5508,8 -1.8222,4 -1.8223,4 -4.6973,8.5 -4.6992,8.5 -2.1914,7.5 -2.1894,7.5 -2.6055,5 -2.6035,5 -0.293,16.5 -0.293,16.5 -0.2382,18.5 -0.2403,18.5 1.3438,4 1.3418,4 2.9902,8 2.9883,8 2.4687,4.26172 2.4668,4.26368 2.5293,6.73632 2.5313,6.73828 1.3242,1.5 1.3242,1.5 3.25,6.5 3.25,6.5 1.7324,2.5 1.7325,2.5 3.041,7.8418 3.0429,7.8418 4.5293,6.75 4.5293,6.75195 4.291,3.76172 4.293,3.76367 10.2227,4.89453 10.2207,4.89453 h 0.9004 0.8984 l 10.3672,4.5 10.3672,4.5 h 0.125 0.125 l 0.5097,6.25 0.5098,6.25 2.627,6.21876 2.6269,6.2207 v 3.5293 3.53124 l 2.0313,2.0293 2.0293,2.03125 5.2207,-0.60937 v 0 l 5.2188,-0.60938 2.6797,-1.01172 2.6777,-1.01367 0.6894,-1.6582 0.6895,-1.65821 0.5215,-9.85546 0.5215,-9.85547 4.1093,0.63867 4.1114,0.64062 6.5,1.5586 6.5,1.55664 6.3554,1.9082 6.3555,1.9082 6.6445,-0.004 6.6446,-0.004 8.5,-1.40234 8.5,-1.40039 2.834,-1.10156 2.8339,-1.10157 7.1661,-1.59375 7.166,-1.59179 8,-3.54883 8,-3.55078 4,-2.70313 4,-2.70312 5.9492,-2.20703 5.9473,-2.20899 4.8085,-3.5293 4.8106,-3.53125 3.3672,-4.16015 3.3691,-4.15821 1.6895,-3.32812 1.6914,-3.32812 1.8066,1.32812 1.8067,1.32812 5.5839,4.25 5.586,4.25 h 0.6113 0.6133 l 4.3984,3.0254 4.3985,3.02539 5.1758,5.47461 5.1777,5.4746 h 0.9375 0.9375 l 6.668,2.91602 6.666,2.91602 3.58,0.66211 3.5782,0.66406 2.7422,-6.11524 2.7441,-6.11328 1.0078,-6.46679 1.0059,-6.4668 -5.8282,-5.22461 -5.8281,-5.22656 -8.5,-8.07227 -8.5,-8.07226 -7.5,-6.38868 -7.5,-6.38867 -1.3926,-1.24023 -1.3925,-1.24024 2.8515,-6.82226 2.8516,-6.82032 3.3379,-4.45507 3.3379,-4.45508 2.8672,-6.04492 2.8671,-6.04493 1.4825,-5 1.4824,-5 1.6582,-10 1.6582,-10 1.4629,-7.02539 1.4629,-7.02539 0.9785,-7.97461 0.9785,-7.97461 0.9277,-6.91796 0.9278,-6.91797 -1.4063,-16.68555 -1.4062,-16.68359 -1.0332,-7.39844 -1.0332,-7.39649 -2.0176,-8 -2.0176,-8 -4.6055,-9 -4.6054,-9 -4.8516,-6.5 -4.8515,-6.5 -0.012,-1.00976 -0.012,-1.00781 6.3633,-3.99219 6.3613,-3.99024 11.541,-7.66015 11.5391,-7.6582 2.5977,-3.82422 2.5976,-3.82227 v -1.54492 -1.54492 l 3.1153,-2.73438 3.1152,-2.73242 -1.4805,-2.24023 -1.4785,-2.23829 -2.2363,-0.33398 -2.2344,-0.33203 -4.4238,-3.37695 -4.4219,-3.375 -3.375,-0.63282 -3.375,-0.63476 -5.6152,1.16601 -5.6153,1.16602 -11.8965,5.85547 -11.8964,5.85547 -10.1817,6.68945 -10.1797,6.69141 -2.1601,-1.13672 -2.1602,-1.13672 -4,-3.00586 -4,-3.00781 -7.5,-3.83594 -7.5,-3.83789 -5,-1.07422 -5,-1.07422 -9,-0.5 -9,-0.50195 -10.5,-2.62891 -10.5,-2.62695 -17.5,-0.53125 -17.5,-0.53125 -13.1328,1.60742 -13.1348,1.60547 -3.166,1.10547 -3.1679,1.10351 -0.3946,-0.39453 -0.3945,-0.39453 -1.1016,-6.89453 -1.1015,-6.89453 -2.0117,-4.67578 -2.0098,-4.67383 -4.4863,-4.40234 -4.4864,-4.4004 h -8.1543 z m 91.8945,69.4668 10,1.5918 10,1.58984 9.584,2.42578 9.582,2.42578 h 2.168 2.166 l -0.041,0.75 -0.041,0.75 -13.0781,8.5 -13.0782,8.5 -11.8047,10 -11.8066,10 -3.8242,3.08008 -3.8262,3.08008 -12.5,9.44727 -12.5,9.44531 -5.1738,3.2793 -5.1719,3.27734 -1.1992,1.44531 -1.1992,1.44531 h -0.8203 l -0.8184,-0.002 -0.4336,-0.75 -0.4336,-0.75 -0.6211,-5.5 -0.6211,-5.5 -1.0019,-22 -1.002,-22 -0.5742,-6.5 -0.5742,-6.5 3.084,-1.81445 3.084,-1.81445 7.2382,-2.48047 7.2383,-2.48242 7.5,-1.45508 7.5,-1.45313 11.5,-0.0156 z m 557.9981,12.84375 -6.5,0.55078 -6.5,0.55274 -6.5703,0.92383 -6.5684,0.92382 -3.0645,1.58399 -3.0625,1.58398 -0.6445,2.5625 -0.6426,2.5625 -3.1816,5.22266 -3.1817,5.22265 -6.5429,9.33204 -6.541,9.33007 -1.7461,2.66993 -1.7442,2.66796 v 1.41993 1.41992 l -3.125,6.78125 -3.125,6.78125 0.5938,1.54883 0.5937,1.54882 1.2813,-0.0117 v 0.002 l 1.2813,-0.0117 11.7968,-2.40625 11.7969,-2.40625 1.4551,-1.20703 1.4551,-1.20703 11.3437,-14.62696 11.3457,-14.625 1.3125,-2.48046 1.3106,-2.48243 2.3418,-1.83984 2.3418,-1.8418 v -1.53515 -1.53321 l 4,-5.02539 4,-5.02343 v -2.39453 -2.39258 l -2.75,-1.07032 z m -387.9082,8.69141 -0.6953,2.49804 -0.6954,2.5 -0.1,11.68946 -0.1,11.6914 -1.0254,0.63477 -1.0273,0.63281 -4.8653,5.84961 -4.8671,5.84766 -2.2344,7.2207 -2.2344,7.21875 0.6113,5.85547 0.6114,5.85352 2.9785,5.89843 2.9765,5.89844 3.7364,3.07813 3.7344,3.08007 5.998,2.02539 5.9961,2.02539 h 6.2461 6.248 l 0.7207,1.16602 0.7207,1.16602 -10.4121,9.88086 -10.4121,9.88086 -7.498,6.20312 -7.4981,6.20312 -4.2519,4.38868 -4.252,4.38867 v 2.22656 2.22461 l 1.9512,2.48047 1.9512,2.48047 4.7988,1.77734 4.7988,1.7793 5.7598,2.86523 5.7598,2.86719 3.9824,0.63672 3.9804,0.63672 3.7598,-3.91797 3.7578,-3.91992 10.4649,-12.95703 10.4648,-12.95704 7.4492,-8.70898 7.4492,-8.70703 0.7207,0.44531 0.7208,0.44531 0.623,4.26172 0.623,4.26367 0.4766,28.32032 0.4785,28.32031 0.5742,0.92969 0.5743,0.92968 h 3.0703 v -0.004 h 3.0722 l 4.7051,-3.38086 4.707,-3.38086 2.1368,-0.67773 2.1386,-0.67969 1.8125,-2.68946 1.8125,-2.6914 1.2618,-3.70899 1.2636,-3.70898 -0.9746,-3.79102 -0.9746,-3.79101 -0.6504,-14.5 -0.6523,-14.5 -0.916,-8 -0.9161,-8 -0.076,-20.5 -0.076,-20.5 -0.75,-14.76953 -0.75,-14.76758 -2.0273,-2.73242 -2.0293,-2.73047 -5.4024,-2.75781 -5.4043,-2.75977 -5.7988,-1.49023 -5.7988,-1.49219 -8.2012,0.0215 -8.2012,0.0234 -8.2461,2.41992 -8.248,2.42188 -2.252,1.58203 -2.2539,1.58398 -4,1.06836 -4,1.06836 -1.6289,1.45313 -1.6308,1.45312 -0.545,-2.29687 -0.5468,-2.29493 -1.2793,-10 z m 947.3047,4.49609 -7.0137,1.59571 -7.0156,1.5957 -4.1192,4.46875 -4.1191,4.46875 -3.2578,4.68554 -3.2598,4.68555 -1.2207,10.63477 -1.2227,10.63672 1.125,6.78711 1.125,6.78515 3.4297,5.57813 3.4278,5.57812 3.3632,2.22266 3.3633,2.22265 2.1426,2.14258 2.1426,2.14063 4.3574,0.84179 4.3574,0.8418 4.1914,0.0449 4.1914,0.043 0.6172,1 0.6192,1 h 2.2402 2.2402 l 1.168,-1.16797 1.168,-1.16601 0.6699,1.74804 0.6719,1.74805 -0.5645,6.73633 -0.5664,6.73828 -2.2656,3.8418 -2.2676,3.84375 -4.2168,4.33789 -4.2168,4.33984 h -4.8906 -4.8887 l -5.7012,5.51953 -5.6992,5.52149 v 3.04492 3.04492 l 1.0801,2.01758 1.0801,2.01758 5.1699,2.40625 5.1699,2.4082 5.3633,0.0117 v -0.006 l 5.3633,0.01 8.5097,-2.05665 8.5079,-2.05664 2.1289,-1.36328 2.1269,-1.36523 5.3184,-1.71485 5.3164,-1.71679 1.6797,-2.56445 1.6816,-2.56446 2.0586,-2.06054 2.0606,-2.0586 1.7304,-5.49023 1.7324,-5.48828 0.8516,-2 0.8516,-2 1.2734,-4.5 1.2754,-4.5 -0.043,-8.5 -0.043,-8.5 -1.211,-15 -1.2109,-15 -0.9102,-0.94922 -0.9121,-0.94922 v -9.75195 -9.75196 l -1.4394,-5.53125 -1.4414,-5.53125 -3.6368,-4.76758 -3.6367,-4.76757 -2.1738,-0.85547 -2.1719,-0.85547 -5.5,-1.35938 -5.5,-1.35742 -10.3027,-0.0352 z m -176.2266,3.8125 -5.584,0.64649 -5.584,0.64843 -3.1484,0.53907 -3.1465,0.53906 -3.2207,2.6875 -3.2207,2.68945 2.5137,3.70313 2.5117,3.70312 1.0742,8.26563 1.0723,8.26757 1.0371,8.44336 1.0371,8.44532 -0.7774,0.77929 -0.7793,0.7793 -8.3281,3.00586 -8.3262,3.00781 -1.832,-0.98047 -1.8301,-0.97851 -0.5273,-1.75196 -0.5254,-1.75 -2.041,-10.1582 -2.043,-10.15625 v -4.66015 -4.65821 l -1.0351,-1.93554 -1.0352,-1.93555 -4.8066,-2.43555 -4.8067,-2.43555 -9.2265,-2.65429 -9.2266,-2.6543 -2.2598,0.56836 -2.2597,0.56641 -1.1641,2.55273 -1.1621,2.55274 0.9004,6.2207 0.8984,6.22265 0.9922,2.54883 0.9902,2.54883 2.6172,13.45117 2.6192,13.45117 1.9804,10 1.9825,10 2.4668,15.5 2.4668,15.5 0.1464,6.5 0.1465,6.5 1.9766,6.76563 1.9766,6.76758 1.4824,1.48242 1.4824,1.48437 h 2.2051 2.207 l 5.4707,-4.11132 5.4707,-4.11133 5.6699,-2.86133 5.67,-2.86328 0.6894,-6.4375 0.6895,-6.4375 -1.0371,-3.33984 -1.0352,-3.3379 -1.1484,-7.5 -1.1465,-7.5 -1.5332,-7.84179 -1.5313,-7.8418 0.8574,-0.7832 0.8594,-0.78321 8.3731,-3.18554 8.373,-3.18555 1.2383,0.47656 1.2383,0.47461 0.6992,6.17774 0.6992,6.17773 0.9512,2.50195 0.9512,2.50196 1.0898,12.1543 1.0898,12.15624 1.4629,4.20313 1.4649,4.20313 1.8965,0.60156 1.8964,0.60156 2.1172,-1.13281 2.1172,-1.13281 1.6719,-1.35743 1.6699,-1.35742 4.5,-3.40234 4.5,-3.40235 -0.2383,-3.91211 -0.2402,-3.91211 -1.6055,-6.44531 -1.6074,-6.44531 -1.9453,-12.05469 -1.9473,-12.05469 -1.3847,-8.75195 -1.3828,-8.75195 -1.793,-20.64649 -1.793,-20.64648 -1.4472,-1.44727 z m 113.4082,2.85352 -2.7871,0.0312 -2.7891,0.0293 -4.2402,1.17383 -4.2402,1.17188 -0.6504,2.59375 -0.6504,2.59375 1.1132,8.12109 1.1133,8.12109 2.5196,19 2.5195,19 1.5273,14 1.5254,14 0.4707,3 0.4727,3 0.4902,11.15821 0.4903,11.16015 1.1503,2.52344 1.1485,2.52149 2.6211,1.02734 2.6191,1.02734 3,0.39063 3,0.39062 3.6133,0.15039 v -0.002 l 3.6152,0.15039 2.6348,-2.63672 2.6367,-2.63672 v -3.04296 -3.04297 l -2.0156,-6.07032 -2.0137,-6.07031 -3.0195,-21 -3.0176,-21 -2.457,-18.5 -2.457,-18.5 -0.064,-6.5 -0.068,-6.5 -1.1933,-3.40625 -1.1934,-3.40625 -2.7109,-2.01172 z m -1148.7793,0.23242 0.8008,0.80078 0.8008,0.80273 1.0566,17 1.0586,17 1.5098,15 1.5097,15 1.4414,10 1.4414,10 1.0606,11.5 1.0605,11.5 0.5352,5.5 0.5351,5.5 1.3809,11.5 1.3828,11.5 1.1465,21 1.1445,21 0.7676,10.5 0.7676,10.5 -0.5977,0.6836 -0.5996,0.68359 -8,-6.52343 -8,-6.52344 -5.373,-5.16016 -5.3711,-5.16016 -5.8594,-7.81054 -5.8574,-7.81055 -4.4844,-8.22461 -4.4824,-8.22656 -2.4883,-6.60938 -2.4883,-6.60937 -2.0527,-8.03906 -2.0508,-8.03711 -1.8379,-12.62696 -1.8379,-12.62695 1.2871,-7.18945 1.2891,-7.18946 1.6914,-9.48437 1.6914,-9.48437 2.8086,-9.82618 2.8086,-9.82812 5.2031,-9.6875 5.2012,-9.68946 2.7812,-4 2.7813,-4 5.7051,-6 5.7051,-6 1.5136,-2.30273 z m 560.7031,0.15234 -3.25,0.58203 -3.25,0.58204 -6,2.27148 -6,2.27344 -7.5,1.69726 -7.5,1.69727 -2,0.83203 -2,0.83203 -8,2.10547 -8,2.10547 -9,2.39258 -9,2.39453 -5,0.66015 -5,0.66016 -1.7871,1.32031 -1.7871,1.32032 -0.8691,3.02929 -0.8692,3.03125 0.9199,15.33203 0.9219,15.33203 1.9981,19.5 1.998,19.5 1.9277,16 1.9258,16 0.6621,8.89649 0.6641,8.89844 2.3516,2.35156 2.3535,2.35351 h 4.4648 4.4629 l 6.332,-1.60351 6.3301,-1.60352 1.6582,-1.46875 1.6582,-1.46875 1.211,-2.92382 1.2129,-2.92383 -1.1114,-4.41406 -1.1113,-4.41211 -2.0684,-19.8418 -2.0683,-19.83985 0.3086,-27 0.3105,-27 1.2637,-2.21093 1.2656,-2.21289 7.7344,-2.41602 7.7363,-2.41797 5.6543,-0.68164 5.6543,-0.68164 0.7422,1.20313 0.7441,1.20312 0.3907,27.60742 0.3886,27.60742 0.7129,23.2129 0.7129,23.21484 1.6465,1.64648 1.6465,1.64649 4.5879,0.51758 4.5859,0.51757 3.0313,-1.25586 3.0332,-1.25585 3.1933,-4.62305 3.1934,-4.6211 0.2246,-11 0.2227,-11 1.039,-7.5 1.0391,-7.5 1,-13 1.0019,-13 0.5313,-26.90039 0.5312,-26.90039 -4.0429,-3.73242 -4.043,-3.73437 -2.9609,-0.5918 z m -389.168,3.89258 2.9864,7.7793 2.9863,7.77929 1.584,6.5 1.582,6.5 1.4473,8.5 1.4473,8.5 1.1972,11 1.1973,11 -0.7129,15 -0.7109,15 -0.4122,5.5 -0.414,5.5 -2.0469,9.89258 -2.0469,9.89453 -1.0214,1.91016 -1.0235,1.91211 -3.0098,7.19531 -3.0097,7.19531 -0.9727,3.25 -0.9726,3.25 -1.7012,-0.0801 v 0 l -1.7011,-0.0801 -9.5,-6.94922 -9.5,-6.94922 -3.5,-2.5 -3.5,-2.5 -3.2617,-2.37891 -3.2637,-2.38085 -12.3633,-11.87891 -12.3613,-11.87891 -9.6758,-5.96289 -9.6758,-5.96094 -4.1992,-2.69921 -4.1992,-2.69727 -8.7383,-4.80273 -8.7402,-4.80079 -0.012,-0.66406 -0.012,-0.66406 7.75,-6.33594 7.75,-6.33594 3,-2.20117 3,-2.19922 10,-6.70312 10,-6.70313 2.5,-1.68164 2.5,-1.68164 10,-6.83008 10,-6.82812 2.9043,-2.40039 2.9043,-2.40234 6.7793,-3.41407 6.7813,-3.41601 3.9687,-2.76953 3.9668,-2.76954 7.0137,-6.27929 z m 601.4122,2.05859 -1.2442,1.5 -1.2441,1.5 h -1.4043 -1.4024 l -7.164,3.60743 -7.166,3.60937 -21.5606,8.75977 -21.5586,8.76172 -9.2324,4.52148 -9.2344,4.52344 -5.2754,3.35742 -5.2773,3.35937 -1.9902,1.10157 -1.9903,1.10156 -0.3066,2.05273 -0.3067,2.05079 2.2793,1.5957 2.2793,1.59765 h 1.7481 1.75 l 5.6816,2.51172 5.6817,2.51368 3.7461,0.59765 3.7441,0.59961 8.2246,-3.17187 8.2246,-3.16993 1.377,0.52735 1.3769,0.52929 0.02,7.28126 0.017,7.28124 1.9629,15 1.9629,15 0.018,18.04883 0.019,18.05078 1.2012,1.19922 1.1992,1.20117 1.5508,-0.0234 v 0.002 l 1.5508,-0.0234 2.5,-1.95508 2.5,-1.95507 1.0957,-0.0234 1.0938,-0.0215 1.9062,-2.13476 1.9043,-2.13281 5.2461,-3.89453 5.2442,-3.89454 1.6445,-2.50976 1.6445,-2.50977 -1.7969,-5.21289 -1.7968,-5.21094 -0.7051,-12.5 -0.7031,-12.5 -1.3262,-17.04296 -1.3242,-17.04297 0.6093,-1.58985 0.6114,-1.59179 6.8261,-2.54297 6.8262,-2.54102 3.5,-0.67383 3.5,-0.67382 4.6992,-1.49805 4.6993,-1.5 1.6523,-2.51953 1.6504,-2.51953 -0.6524,-5.63282 -0.6523,-5.63086 -1.0937,-6 -1.0938,-6 -1.3809,-2.75 -1.3789,-2.75 h -2.3535 z m 163.3593,0.99024 -2.0507,0.61914 -2.0528,0.61914 -9.5,4.63477 -9.5,4.63671 -1.164,6 -1.1622,6 -1.6503,9 -1.6485,9 -1.5527,4.75 -1.5527,4.75 h -1.3477 -1.3457 l -1.0449,-3.88281 -1.045,-3.88086 -1.4882,-9.86914 -1.4864,-9.86719 -0.039,-3 -0.037,-3 -1.2188,-1.58789 -1.2168,-1.58593 -2.1855,-1.16407 -2.1836,-1.16211 h -2.6289 -2.627 l -4.9707,1.625 -4.9687,1.625 -1.0293,1.92383 -1.0293,1.92383 1.0156,3.20117 1.0156,3.20117 1.1094,8.5 1.1074,8.5 3.4199,24 3.42,24 1.4804,7.5 1.4785,7.5 1.5372,5.79883 1.539,5.79883 0.014,2.70117 0.016,2.70117 1.5391,4.5 1.539,4.5 1.6368,1.25 1.6386,1.25 h 1.4805 1.4785 l 1.8281,-1.65624 1.8301,-1.6543 v -1.18946 -1.1914 l 2,-1.8086 2,-1.81054 v -1.48633 -1.48633 l 4.9238,-10.60937 4.9239,-10.60743 4.666,-12.4746 4.666,-12.47461 1.4356,-2.77539 1.4355,-2.7754 h 0.9395 0.9394 l 1.0977,2.05079 1.0976,2.05273 1.8477,7.19727 1.8457,7.19921 0.7051,6.5 0.705,6.5 0.877,1.66993 0.8789,1.66992 3.582,1.18164 3.5821,1.18164 4.5878,-0.6875 4.5879,-0.6875 2.8379,-2.83789 2.8379,-2.83789 v -2.11524 -2.11718 l -1.8672,-3.71094 -1.8652,-3.70899 -3.6973,-15.38476 -3.6972,-15.38477 -4.3516,-23.11523 -4.3496,-23.11524 -1.0313,-3.9746 -1.0312,-3.97266 -1.752,-1.28125 z m 284.3887,6.66797 2.3731,1.26758 2.371,1.26953 0.6309,6.04883 0.6328,6.04882 v 5.91797 5.91992 l -1.0351,1.9336 -1.0352,1.93554 -3.2148,-0.0391 -3.2149,-0.0371 -1.332,-1.50976 -1.334,-1.50781 -0.916,-3.19727 -0.918,-3.19727 v -3.74218 -3.74219 l 1.2149,-4.54102 1.2148,-4.54101 2.2813,-2.14453 z m -358.1269,3.33984 -2.1836,0.0156 -2.1817,0.0137 -4.1582,1.44922 -4.1582,1.44922 -6.2246,1.00195 -6.2266,1.00391 -1.873,1.69531 -1.875,1.69531 -5.0274,7.83789 -5.0273,7.83789 h -2.4062 -2.4063 l -0.623,-1.00781 -0.6231,-1.00781 -0.25,-9.56836 -0.248,-9.56641 -1.4375,-0.91016 -1.4356,-0.9082 -4.8828,-0.0156 -4.8848,-0.0137 -4.1152,1.17383 -4.1172,1.17578 -1.2304,0.93165 -1.2305,0.92968 0.6347,16.79297 0.6329,16.79102 -1.2168,18.85156 -1.2168,18.85351 -1.0606,12.5 -1.0625,12.5 -0.4609,5.13282 -0.461,5.13476 1.5801,3.05274 1.5781,3.05273 1.0567,0.65235 1.0586,0.65429 4.6992,0.79102 4.6992,0.79297 3.8496,0.11718 3.8477,0.11719 3.5176,-1.66992 3.5175,-1.66797 2.9942,-4.08203 2.9961,-4.08008 -0.4922,-14.58789 -0.4922,-14.58789 0.9316,-1.66211 0.9297,-1.66211 h 2.3008 2.3008 l 7.9004,5.64063 7.8984,5.64062 3.8653,3.46094 3.8632,3.45898 5.6348,-0.70312 5.6348,-0.70508 2.7929,-1.44336 2.795,-1.44531 1.0234,-2.69141 1.0234,-2.69336 -0.6035,-3.21679 -0.6035,-3.21875 -8.2129,-5.74024 -8.2129,-5.73828 -8.5,-7.33008 -8.5,-7.33008 -3.3418,-3.30664 -3.3398,-3.30664 4.207,-6.91601 4.207,-6.91602 3.6094,-4.44531 3.6113,-4.44336 4.2129,-4.55664 4.2129,-4.55469 1.8867,-2 1.8868,-2 2.2773,-3.13672 2.2773,-3.13476 -0.6699,-2.11524 z m -552.5469,11.00195 h 4.8418 4.8398 v 10.375 10.375 l -3.125,0.625 -3.125,0.625 h -5.3164 -5.3144 l -0.6192,1 -0.6172,1 h -7.4179 -7.418 l -1.668,-2.54687 -1.6679,-2.54492 1.2675,-2.3711 1.2696,-2.36914 1.8632,-0.48828 1.8653,-0.48633 0.9863,-2.59765 0.9883,-2.59571 h 1.4473 1.4492 l 3.0918,-2.60351 3.0937,-2.60352 4.6426,-1.39648 z m 794.9531,9.80665 -12.8867,1.29296 -12.8848,1.29297 -5.5,0.32618 -5.5,0.32617 -5.3379,0.31054 -5.3379,0.3125 -0.8554,1.38282 -0.8555,1.38476 0.4531,3.53125 0.4532,3.5332 1.5332,8 1.5312,8 1.0723,2.14649 1.0722,2.14844 2.1368,1.08984 2.1347,1.08984 5.5,-0.4082 5.5,-0.4082 13.5,-2.50195 13.5,-2.50196 2.6973,-1.0332 2.6992,-1.0332 1.6914,-2.58204 1.6934,-2.58398 -0.5371,-7.71094 -0.5372,-7.71094 -1.2148,-2.64062 -1.2129,-2.64062 -2.2539,-1.20704 z m -466.959,5.04882 -6.1894,1.1211 -6.1914,1.12304 -4.7149,2.01954 -4.7168,2.02148 -5.0156,3.32617 -5.0137,3.32813 -3.1758,4.89843 -3.1738,4.9004 -3.5,7.57812 -3.5019,7.57617 -1.5059,5.875 -1.5078,5.87695 -0.6445,5 -0.6465,5 1.1699,6.5 1.1719,6.5 1.832,4.17579 1.834,4.17382 4.1894,4.54493 4.1895,4.54492 4.6484,2.60742 4.6504,2.60742 5,1.41797 5,1.41797 10.5,-0.33594 10.5,-0.33594 7.1113,-3.65625 7.1094,-3.65625 4.6836,-5.00781 4.6836,-5.00586 2.7695,-6.24609 2.7715,-6.2461 1.8262,-5.90429 1.8281,-5.90235 -0.5566,-11.09765 -0.5547,-11.09571 -3.0371,-6.40429 -3.0391,-6.4043 -2.9297,-3.0957 -2.9297,-3.09571 -2.5371,-4.10351 -2.539,-4.10352 -4.8301,-2.52148 -4.8301,-2.52149 -5.0937,-0.69726 z m -226.2851,0.24414 -5.3887,0.87696 -5.3887,0.87695 -7.375,3.56055 -7.375,3.55859 -4.3535,3.26367 -4.3535,3.26367 -5.418,8.95118 -5.4199,8.95312 -2.0996,6.54688 -2.1016,6.54882 -0.4941,11.01758 -0.4942,11.01953 1.6426,6.48047 1.6426,6.48242 2.6641,5.5 2.664,5.5 5.0586,5.35743 5.0586,5.35937 4.7207,2.39258 4.7188,2.39062 8.2832,1.9668 8.2812,1.96875 7.293,-0.51367 7.291,-0.51367 6.209,-1.94336 6.207,-1.94531 5.0156,-2.89649 5.0157,-2.89648 5.3066,-4.77149 5.3067,-4.77148 5.3183,-11.0918 5.3164,-11.0918 1.1367,-5.5371 1.1368,-5.53711 -1.0528,-7.42969 -1.0547,-7.43164 -1.3183,-2.0332 -1.3184,-2.03126 -2.1562,-5.79687 -2.1582,-5.79687 -2.0215,-3.95899 -2.0196,-3.96094 -6.1074,-6.49218 -6.1074,-6.49219 -4.1191,-1.10156 -4.1192,-1.10157 -2.5,-1.00586 -2.5,-1.0039 -8.2363,-1.34571 z m 222.0781,30.4043 3.6973,2.13086 3.6972,2.13281 1.8594,3.14453 1.8594,3.14649 0.086,7.2207 0.086,7.2207 -1.9121,4 -1.9121,4 -0.7578,1 -0.7578,1 -2.2754,2.65821 -2.2754,2.6582 -3.5351,0.5957 v 0 l -3.5351,0.59766 -1.7325,-7.75586 -1.7324,-7.75391 0.019,-5.88476 0.018,-5.88477 1.1406,-3.80468 1.1407,-3.80664 3.4121,-3.30665 z m -224.2227,2.49609 0.6172,1 0.6192,1 h 1.9394 1.9414 v 1 1 h 1.5488 1.5469 l 4.7031,4.75 4.7012,4.75 3.3574,6.4668 3.3555,6.4668 -0.4766,4.96875 -0.4785,4.96875 -2.1289,1.72461 -2.1289,1.72461 v 0.66992 0.67187 l -3.4883,4.25586 -3.4863,4.25782 -3.8789,1.16211 -3.8789,1.1621 h -1.4375 v 0.002 h -1.4375 l -4.8711,-3.25 -4.8691,-3.25 -1.8262,-0.98633 -1.8262,-0.98828 v -0.76172 -0.76367 h -1.2187 -1.2168 l -2.2032,-2.5625 -2.2011,-2.5625 -1.1914,-7.06446 -1.1914,-7.0664 0.6679,-5.04492 0.67,-5.04492 4.0195,-5.73047 4.0195,-5.73047 2.1738,-0.58399 2.1719,-0.58203 3.6914,-0.0156 z m -364.3828,34.31446 12.2305,7.59375 12.2305,7.59375 13.7695,13.10937 13.7695,13.10938 4.5703,3.89062 4.5703,3.89063 5.7774,4.5 5.7754,4.5 6.5351,5.28906 6.5332,5.28906 10.1192,6.61914 10.1191,6.61914 0.4297,0.35352 0.4277,0.35547 -1.6367,3.23633 -1.6367,3.23828 -3.793,6.7207 -3.791,6.71875 -5.2129,4.28125 -5.2129,4.2793 -5.041,3.82617 -5.0429,3.82617 -6.2442,0.9043 -6.2461,0.90234 -5,-0.0371 v 0.004 l -5,-0.0391 -4.5,-1.88868 -4.5,-1.88867 -7.5,0.54688 -7.5,0.54687 -9,-3.66406 -9,-3.66406 -4.9238,-0.94531 -4.9238,-0.94532 -0.2871,-0.28515 -0.2852,-0.28711 -0.5059,-8.45703 -0.5058,-8.45508 -1.1758,-18.5 -1.1777,-18.5 0.7461,-18.5 0.746,-18.5 0.6465,-8.59375 z"
       transform="scale(0.26458333)"
       id="path931"
       inkscape:connector-curvature="0" />
    <path
       style="fill:#8bd49f;fill-opacity:1;stroke-width:1.00000012"
       d="m 3019.4492,-674.04688 -5.1504,1.79688 -5.1484,1.79688 -4.4961,2.97851 -4.4961,2.97656 -3.543,5.22657 -3.5449,5.2246 -1.7168,6 -1.7148,6 v 8.5 8.5 l 1.664,5.6836 1.6641,5.68359 3.2402,4.22266 3.2422,4.22265 3.7051,2.98243 3.7051,2.98242 5.2949,1.89062 5.2949,1.89063 10.5059,-0.34375 10.5058,-0.34375 5.668,-2.5957 5.6699,-2.59571 4.3926,-4.05078 4.3945,-4.04883 2.586,-5.28906 2.5859,-5.29102 1.2344,-6.29882 1.2363,-6.29883 -0.543,-7.70117 -0.5429,-7.70118 -2.1055,-5.58007 -2.1035,-5.57813 -3.5352,-4.1289 -3.5332,-4.12891 -6.6855,-3.29297 -6.6856,-3.29102 h -10.5234 z m -294.9961,0.0273 -11,0.0195 -11,0.0176 -6.3008,2.87695 -6.3007,2.87695 -4.3965,4.88868 -4.3946,4.88867 -2.2714,5.70312 -2.2715,5.70117 -0.035,13.5 -0.033,13.5 2.8067,6 2.8066,6 2.6934,2.82032 2.6933,2.81836 3.3242,2.05859 3.3243,2.05664 4.1757,1.30664 4.1758,1.30469 8.0684,0.0684 8.0722,0.0645 4.9317,-1.46484 4.9316,-1.46485 4.6367,-2.94336 4.6387,-2.9414 3.2168,-4.67578 3.2168,-4.67383 2.0684,-5.66797 2.0683,-5.66797 -0.01,-11.5 -0.01,-11.5 -2.3125,-5.94922 -2.3105,-5.94922 -4.3907,-4.69335 -4.3886,-4.69336 -5.2149,-2.34375 z m 152,0 -11,0.0195 -11,0.0176 -6.3008,2.87695 -6.3007,2.87695 -4.3965,4.88868 -4.3946,4.88867 -2.2714,5.70312 -2.2715,5.70117 -0.035,13.5 -0.033,13.5 2.8067,6 2.8066,6 2.6934,2.82032 2.6933,2.81836 3.3242,2.05859 3.3243,2.05664 4.1757,1.30664 4.1758,1.30469 8.0684,0.0684 0.012,-0.004 8.0684,0.0684 4.9316,-1.46484 4.9316,-1.46485 4.6368,-2.94336 4.6386,-2.9414 3.2168,-4.67578 3.2168,-4.67383 2.0684,-5.66797 2.0683,-5.66797 -0.012,-11.5 -0.012,-11.5 -2.3125,-5.94922 -2.3105,-5.94922 -4.3907,-4.69335 -4.3886,-4.69336 -5.2149,-2.34375 z m 58.4414,0.4082 -11.7226,0.28321 -11.7227,0.28124 0.1211,4 0.1211,4 0.1797,31.62696 0.1777,31.62695 -0.6582,2.62305 -0.6582,2.62304 h 12.0547 12.0527 l -0.1953,-14.25 -0.1953,-14.25 11.8985,-0.2832 11.8984,-0.2832 -0.5449,14.5332 -0.545,14.5332 11.6465,-0.004 11.6465,-0.002 0.1113,-38.49805 0.1114,-38.4961 h -11.9844 -11.9844 l 0.3731,14.75 0.373,14.75 h -11 -11 l -0.2773,-14.78124 z m -342.0644,0.002 -11.6914,0.28126 -11.6895,0.28124 v 14.5 14.5 h -11 -11 l -0.2773,-14.75 -0.2754,-14.75 h -11.4629 -11.4609 l 0.2246,38.5 0.2246,38.5 h 11.373 11.3711 l -0.3574,-14.25 -0.3594,-14.25 11.625,-0.28124 11.625,-0.28126 0.5313,2.02735 0.5293,2.0293 -0.4336,8.25195 -0.4356,8.2539 -0.3476,4.25 -0.3477,4.25 11.627,-0.002 11.6269,-0.002 0.1895,-38.5293 z m 547.2285,0 0.1953,38.5293 0.1953,38.53125 h 11.1192 l 11.1191,0.002 0.2324,-34.75 0.2344,-34.75 0.1484,-3.5 0.1465,-3.5 -11.6953,-0.28124 z m -720.1094,0.008 -14.6855,0.27734 -14.6856,0.27734 -10.3086,35 -10.3086,35 -0.9257,3.25 -0.9239,3.25 h 11.7813 11.7832 l 1.2051,-7.48046 1.207,-7.48047 4.7871,-19.54297 4.7871,-19.54297 0.6445,-0.64258 0.6426,-0.64453 0.457,0.45703 0.4551,0.45508 4.584,24.96094 4.582,24.96093 0.4805,2.25 0.4805,2.25 h 11.9805 11.9804 v -0.35351 -0.35156 l -10,-37.79493 -10,-37.79492 v -0.3789 z m 232,0 -14.6855,0.27734 -14.6856,0.27734 -10.3086,35 -10.3086,35 -0.9257,3.25 -0.9239,3.25 h 11.7813 11.7832 l 1.2051,-7.48046 1.207,-7.48047 4.7871,-19.54297 4.7871,-19.54297 0.6445,-0.64258 0.6426,-0.64453 0.457,0.45703 0.4551,0.45508 4.584,24.96094 4.582,24.96093 0.4805,2.25 0.4805,2.25 h 11.9805 11.9804 v -0.35351 -0.35156 l -10,-37.79493 -10,-37.79492 v -0.3789 z m 543.1817,0 -2.0411,6.27734 -2.041,6.27734 -9.5488,31.6504 -9.5508,31.65234 v 0.59766 0.5996 h 11.3613 11.3594 l 0.8906,-6.25 0.8887,-6.25 h 11 11 l 0.8906,6.25 0.8887,6.25 h 11.8613 11.8594 l -0.041,-0.75 -0.041,-0.75 -10.2793,-37.5 -10.2813,-37.5 -14.0878,-0.27734 z m -119.1856,0.0215 0.1895,38.51758 0.1914,38.51562 h 26.2324 26.2324 l 0.5313,-2.75 0.5293,-2.75 0.2988,-6.5 0.2988,-6.5 -16.3027,0.38477 -16.3047,0.38281 0.3047,-5.88281 0.3027,-5.88477 12.0996,0.29102 12.0996,0.29102 0.6621,-8.61719 0.6622,-8.61914 -0.5704,-0.92188 -0.5703,-0.92383 h -11.9414 -11.9414 v -5.62109 -5.62109 l 15.416,0.72265 15.4141,0.72266 0.666,-5.35156 0.6641,-5.35157 -0.3301,-4 -0.3301,-4 -27.2519,-0.26562 z m -758.9961,0.0332 v 0.39258 0.39258 l -11.0137,36.35742 -11.0136,36.35742 -0.5547,1.75 -0.5527,1.75 h 11.5058 11.5059 l 0.6465,-4.75 0.6445,-4.75 0.4844,-1.75 0.4824,-1.75 h 10.8183 10.8204 l 0.6699,4.75 0.6699,4.75 0.5117,1.75 0.5098,1.75 h 11.4336 11.4316 v -0.95117 -0.95312 l -10.0234,-36.67969 -10.0235,-36.68164 -0.5351,-0.86719 -0.5352,-0.86719 h -13.9414 z m 148.1172,0 -0.6016,0.97461 -0.6015,0.97266 -10.4707,35.77734 -10.4707,35.77539 -0.5547,1.75 -0.5527,1.75 h 11.9394 11.9375 l 0.6406,-5.25 0.6407,-5.25 5.2382,-22.24218 5.2383,-22.24414 1.0567,-0.006 1.0586,-0.008 4.7832,26.25 4.7812,26.25 0.3789,1.25 0.3789,1.25 h 12.1387 12.1387 l -0.5196,-1.35156 -0.5175,-1.35156 -9.7735,-37.14844 -9.7715,-37.14844 h -14.2578 z m 293.5645,0.5 -0.092,38.2129 -0.09,38.21289 8,0.40234 8,0.40234 10.9981,-0.31836 v 0 l 10.9981,-0.31835 5.5,-1.15626 5.5,-1.15429 4.8242,-2.5918 4.8262,-2.5918 2.4238,-4.13671 2.4258,-4.13868 v -6.41211 -6.41211 l -1.9864,-3.25781 -1.9863,-3.25976 -4.5,-2.18555 -4.502,-2.1875 3.6211,-2.98438 3.6192,-2.98437 1.8496,-4.07031 1.8496,-4.07032 0.021,-3.7832 0.023,-3.78125 -1.3769,-3.29297 -1.375,-3.29297 -3.7305,-3.07421 -3.7305,-3.07618 -4.6445,-1.34961 -4.6426,-1.34961 h -20.9101 z m 22.3183,15.5 h 4.8653 4.8652 l 2.6348,2.07227 2.6347,2.07227 v 3.47265 3.47266 l -2.4551,2.45508 -2.4531,2.45507 h -5.0469 -5.0449 v -8 z m 240.2559,1.78907 6.9863,0.39453 6.9883,0.39453 2.332,2.71289 2.3321,2.71094 1.041,3.75 1.041,3.74804 0.012,9.28126 0.012,9.2832 -1.3613,3.2168 -1.3633,3.21874 -2.1758,1.9375 -2.1738,1.93946 -5.7129,0.35351 h -0.01 l -5.7128,0.35157 -2.4024,-1.29102 -2.4043,-1.29102 -1.8359,-2.5 -1.8379,-2.5 -1.0098,-5.38671 -1.0097,-5.38672 0.023,-5.61328 0.023,-5.61329 0.9219,-4 0.9238,-4 3.1856,-2.85546 z m -314.875,0.21093 h 5.1777 5.1758 l 2.5098,1.97266 2.5097,1.97461 1.125,4.46875 1.125,4.46875 -0.01,9.80664 -0.01,9.80859 -1.041,3.74805 -1.041,3.74805 -2.9024,1.50195 -2.9043,1.50195 h -3.9121 -3.914 l -2.5625,-2.01562 -2.5625,-2.01562 -1.2774,-3.73438 -1.2754,-3.73438 -0.047,-11 -0.045,-11 0.7617,-2.72265 0.7618,-2.72266 2.1777,-2.02734 z m 152.0078,0 h 5.1758 5.1777 l 2.5098,1.97266 2.5097,1.97461 1.125,4.46875 1.125,4.46875 -0.012,9.80664 -0.012,9.80859 -1.041,3.74805 -1.041,3.74805 -2.9024,1.50195 -2.9043,1.50195 h -3.9121 -3.914 l -2.5625,-2.01562 -2.5625,-2.01562 -1.2774,-3.73438 -1.2754,-3.73438 -0.047,-11 -0.047,-11 0.7715,-2.72265 0.7617,-2.72266 2.1777,-2.02734 z m -528.2422,2.7461 0.9023,0.90234 0.9043,0.9043 1.9844,9.64453 1.9844,9.64258 0.6484,2.58008 0.6465,2.58007 h -6.6074 -6.6094 v -1.6875 -1.68554 l 1.9375,-7.06446 1.9395,-7.0625 1.1347,-4.37695 z m 879.3535,0.7539 2.2129,10.5 2.2149,10.5 0.035,2.25 0.037,2.25 h -6.5 v 0 h -6.5 l 0.033,-0.25 0.035,-0.25 3.2168,-12.10937 3.2168,-12.11133 1,-0.38867 z m -190.3398,9.5 -0.6953,6.48047 -0.6934,6.48047 0.582,1.51953 0.584,1.51953 h 9.0313 9.0312 v -8 -8 h -8.9199 z m -227.6602,15.38086 2.793,1.35743 2.793,1.35742 1.0976,2.40625 1.0957,2.4082 -1.207,2.91406 -1.207,2.91602 -2.4805,1.12891 -2.4785,1.13085 h -5.9532 -5.9531 v -7.4082 -7.40625 l 5.75,-0.40234 z"
       transform="scale(0.26458333)"
       id="path921"
       inkscape:connector-curvature="0" />
  </g>
</svg>
