<?xml version="1.0" encoding="UTF-8" standalone="no"?>
<!DOCTYPE svg PUBLIC "-//W3C//DTD SVG 1.1//EN" "http://www.w3.org/Graphics/SVG/1.1/DTD/svg11.dtd">
<svg width="100%" height="100%" viewBox="0 0 358 65" version="1.1" xmlns="http://www.w3.org/2000/svg" xmlns:xlink="http://www.w3.org/1999/xlink" xml:space="preserve" xmlns:serif="http://www.serif.com/" style="fill-rule:evenodd;clip-rule:evenodd;stroke-linejoin:round;stroke-miterlimit:2;">
    <g transform="matrix(1,0,0,1,-101.981,-159.83)">
        <g transform="matrix(1,0,0,1,195.488,196.252)">
            <path d="M0,8.332L-3.362,12.707C-3.62,12.893 -3.887,13.075 -4.11,13.298C-4.513,13.7 -5.165,13.461 -5.541,13.873C-8.429,15.512 -11.333,12.165 -13.719,10.801C-15.217,9.989 -15.636,8.276 -16.081,6.764C-16.388,6.185 -16.012,6.091 -16.215,5.536C-17.028,3.589 -16.262,1.469 -15.714,-0.444C-15.651,-0.616 -15.597,-0.873 -15.471,-0.925C-14.988,-1.123 -14.872,-1.598 -14.679,-1.969C-14.393,-2.518 -13.937,-2.927 -13.634,-3.458C-13.345,-3.961 -12.74,-4.248 -12.276,-4.33C-11.528,-4.509 -10.817,-4.872 -10.062,-4.898C-9.201,-4.514 -7.778,-5.04 -7.318,-3.999C-7.257,-3.779 -7.061,-3.787 -6.865,-3.768C-6.021,-3.687 -5.316,-3.34 -4.782,-2.657C-1.851,-0.42 1.585,4.515 0,8.332M8.897,3.754C8.658,2.05 8.665,0.166 7.667,-1.285C7.032,-2.306 6.724,-3.428 6.348,-4.514C5.601,-7.049 3.568,-8.699 1.806,-10.52C0.882,-11.602 -0.354,-11.821 -1.693,-11.948C-2.971,-12.757 -4.472,-12.72 -5.857,-13.02C-9.589,-13.973 -13.683,-12.101 -16.611,-9.877C-18.397,-8.922 -19.254,-7.212 -20.192,-5.512C-22.445,-2.596 -23.033,0.948 -23.334,4.54L-23.189,7.899C-22.269,13.566 -19.086,19.335 -12.922,20.214C-7.374,22.305 -0.907,20.222 3.399,16.464C4.259,15.183 5.662,14.387 6.126,12.811C7.421,9.926 9.277,7.083 8.897,3.754" style="fill:white;fill-rule:nonzero;"/>
        </g>
        <g transform="matrix(1,0,0,1,154.863,201.31)">
            <path d="M0,-15.563C-2.662,-15.616 -5.315,-14.417 -7.891,-15.514C-8.383,-15.605 -8.805,-15.781 -8.86,-16.381C-8.904,-16.852 -9.402,-17.136 -9.347,-17.692C-9.313,-18.05 -9.334,-18.361 -9.158,-18.724C-8.778,-19.501 -8.359,-20.176 -7.58,-20.636C-6.895,-21.039 -6.654,-22.141 -5.797,-22.329C-4.522,-22.94 -3.688,-24.257 -2.215,-24.496C-0.654,-25.117 0.951,-25.212 2.596,-25.021C2.802,-25.053 3.02,-25.004 3.232,-24.996C4.647,-25.22 4.165,-22.31 4.335,-21.407C4.041,-13.454 5.875,-16.692 0,-15.563M11.953,9.923C11.453,7.991 11.766,5.921 11.351,3.96C11.281,3.614 11.217,3.236 11.436,2.841L11.291,-0.519C9.968,-7.573 11.135,-14.989 10.426,-22.175C10.184,-25.542 11.398,-28.474 7.743,-30.351C2.919,-33.135 -3.941,-32.845 -8.806,-30.169C-10.055,-29.317 -11.757,-29.5 -12.762,-28.265C-14.769,-26.694 -16.709,-25.132 -18.021,-22.919C-20.023,-19.566 -19.779,-14.446 -17.061,-11.503C-14.013,-8.07 -8.873,-8.209 -4.717,-8.713C-4.056,-8.769 -4.735,-8.193 -4.993,-8.036C-9.098,-4.573 -12.822,-0.636 -16.969,2.787C-17.814,3.393 -18.438,3.473 -19.029,4.426C-19.148,4.648 -19.601,4.636 -19.647,4.88C-19.69,5.744 -21.042,5.8 -20.81,6.71C-20.726,7.079 -20.862,7.463 -20.679,7.805C-19.954,8.256 -19.021,8.526 -18.229,8.895C-17.188,9.08 -16.711,9.799 -15.912,10.004C-13.958,10.329 -12.227,12.506 -10.216,11.095C-6.445,5.798 -1.817,0.916 2.215,-4.228C2.819,-4.956 4.408,-6.973 4.301,-4.959C4.462,-1.21 4.443,2.538 4.721,6.272C5.147,9.034 4.611,11.814 4.798,14.552C4.54,15.274 4.849,15.965 4.863,16.67C4.866,16.844 4.999,16.869 5.106,16.939C6.144,17.572 6.886,16.505 7.698,16.051C8.579,15.538 9.29,14.728 10.355,14.539C10.466,14.52 10.512,14.354 10.57,14.338C11.063,14.194 10.861,13.549 11.279,13.377C11.937,13.134 11.542,12.565 11.764,12.158C12.398,11.461 12.193,10.688 11.953,9.923" style="fill:white;fill-rule:nonzero;"/>
        </g>
        <g transform="matrix(1,0,0,1,111.358,199.352)">
            <path d="M0,-15.239C3.739,-21.845 8.99,-27.482 12.991,-33.824C12.744,-35.058 13.751,-35.318 14.512,-35.575C15.733,-35.989 16.965,-36.447 18.305,-36.41C19.827,-36.629 21.343,-37.197 22.824,-37.649C25.207,-37.975 22.65,-34.841 21.833,-34.318C21.555,-33.797 21.819,-33.211 21.167,-32.776C16.388,-27.341 12.233,-21.34 8.195,-15.33C6.983,-12.758 5.536,-10.448 3.809,-8.181C3.592,-7.863 3.669,-7.661 3.942,-7.446C9.289,-1.837 13.452,4.838 18.612,10.645C19.562,11.799 20.487,12.997 21.506,14.09C22.937,14.498 22.296,16.878 21.227,17.282C15.767,20.626 16.05,17.526 12.696,13.986C8.234,8.765 3.727,3.619 -0.557,-1.727C-1.424,-2.814 -1.061,-0.839 -1.261,-0.303C-2.044,4.487 -2.598,9.348 -2.615,14.202C-2.892,15.703 -2.758,17.218 -2.797,18.72C-2.843,19.239 -2.973,19.751 -2.669,20.257C-2.478,20.576 -2.595,20.873 -2.95,21.046C-4.846,22.122 -6.217,23.974 -8.382,24.572C-8.829,24.577 -9.028,24.501 -8.965,24.086C-8.907,23.711 -8.98,23.434 -9.191,23.139C-9.423,22.817 -9.389,22.431 -9.347,22.058C-9.158,20.748 -9.221,19.443 -8.956,18.131C-7.728,5.448 -8.224,-7.644 -7.685,-20.531C-7.466,-24.42 -7.091,-28.338 -6.788,-32.205C-7.021,-34.316 -6.935,-36.386 -6.673,-38.498C-6.487,-39.425 -5.741,-39.816 -4.988,-39.276C-3.311,-38.47 -1.299,-38.718 0.491,-38.191C1.102,-38.122 1.378,-37.609 1.041,-37.082C0.843,-36.774 0.915,-36.712 1.125,-36.421C1.519,-35.875 1.649,-35.145 1.539,-34.458C0.969,-28.083 0.358,-21.55 0,-15.239" style="fill:white;fill-rule:nonzero;"/>
        </g>
        <g transform="matrix(1,0,0,1,238.96,208.603)">
            <path d="M0,-31.013C0.194,-32.498 -0.038,-34.016 0.238,-35.511C0.17,-36.532 -0.076,-38.017 -1.25,-38.251C-2.497,-39.817 -4.062,-39.337 -5.756,-39.057C-8.859,-37.568 -12.437,-36.997 -15.786,-36.013C-19.332,-34.827 -22.992,-34.206 -26.559,-33.109C-27.94,-32.518 -29.625,-33.471 -30.653,-31.976C-30.737,-19.307 -28.017,-6.103 -27.329,6.789C-27.121,8.804 -24.122,8.477 -22.708,8.041C-22.563,7.996 -22.45,7.819 -22.28,7.868C-21.788,8.011 -21.334,7.769 -20.861,7.751C-19.947,7.713 -19.441,7.001 -18.957,6.35C-17.826,5.078 -19.005,3.49 -19.205,2.117C-19.641,-1.63 -19.968,-5.346 -20.22,-9.127C-20.224,-14.946 -20.426,-20.823 -20.216,-26.644C-19.802,-27.46 -19.932,-28.233 -20.435,-29.044C-17.083,-30.302 -13.779,-31.588 -10.171,-31.636C-8.28,-32.223 -9.287,-26.718 -8.84,-25.55C-8.807,-22.025 -8.787,-18.438 -8.935,-14.933C-8.657,-9.872 -8.065,-4.773 -8.227,0.262C-8.603,2.631 -7.5,3.05 -5.359,2.944C-4.133,2.903 -3.32,2.335 -2.806,1.291C-2.553,0.779 -2.401,0.223 -1.826,-0.054C-0.87,-1.63 -2.064,-3.584 -1.527,-5.334C-1.206,-6.343 -1.419,-7.384 -1.34,-8.408C-1.23,-9.111 -0.916,-9.814 -1.029,-10.516C-0.894,-13.785 -0.83,-17.17 -0.116,-20.362C0.183,-20.883 -0.209,-21.377 -0.119,-21.918C-0.083,-22.586 -0.453,-23.274 -0.013,-23.924C-0.547,-26.243 -0.181,-28.656 0,-31.013" style="fill:white;fill-rule:nonzero;"/>
        </g>
        <g transform="matrix(1,0,0,1,448.709,204.838)">
            <path d="M0,-33.257C-1.401,-33.265 -2.711,-33.475 -3.716,-32.34C-5.62,-30.32 -5.937,-27.012 -5.508,-24.389C-5.145,-23.546 -5.12,-22.511 -4.152,-22.012C-3.564,-20.771 -2.048,-20.74 -0.88,-21.111C2.022,-22.355 0.566,-27.845 0.537,-30.392C0.617,-31.391 -0.243,-32.272 0,-33.257M-11.678,-17.932C-14.716,-21.44 -14.396,-26.47 -13.511,-30.663C-13.635,-31.273 -13.389,-31.724 -13.016,-32.148C-11.662,-34.445 -10.056,-37.157 -7.113,-37.383C-2.788,-38.549 1.596,-38.339 5.734,-36.553C6.85,-35.927 7.583,-34.429 8.166,-33.304C8.441,-32.541 8.372,-31.679 8.858,-30.977C8.924,-30.882 8.904,-30.72 8.904,-30.589C9.073,-27.798 8.936,-24.788 9.403,-22.071C9.77,-19.188 9.843,-16.199 10.279,-13.347C10.339,-13.185 10.347,-12.955 10.276,-12.803C9.794,-11.762 10.171,-10.681 10.102,-9.623C10.095,-9.527 10.129,-9.399 10.192,-9.331C10.49,-9.014 10.311,-8.725 10.122,-8.481C9.216,-7.097 9.408,-5.338 8.697,-3.889C8.183,-2.989 8.132,-1.874 7.458,-1.07C6.542,0.075 5.853,1.917 4.146,1.927C3.992,1.916 3.776,1.901 3.688,1.988C3.119,2.545 2.275,2.54 1.673,3.007C1.332,3.271 0.96,3.416 0.54,3.512C-1.859,3.875 -4.137,5.292 -6.586,4.643C-7.678,4.669 -8.562,4.06 -9.504,3.582C-10.576,3.133 -10.833,2.247 -10.88,1.226C-10.923,-0.11 -9.204,-0.422 -8.804,-1.254C-8.587,-1.611 -8.427,-2.063 -7.908,-2.136C-7.868,-2.141 -7.847,-2.272 -7.817,-2.345C-7.591,-2.411 -7.288,-2.297 -7.165,-2.61C-6.819,-2.529 -6.251,-2.466 -5.901,-2.623C-4.939,-2.539 -3.531,-2.635 -3.063,-3.614C-2.704,-4.342 -2.199,-4.907 -1.54,-5.369C0.877,-7.444 0.372,-11.308 0.623,-14.211C0.631,-14.849 0.53,-14.926 -0.042,-14.65C-1.245,-13.872 -2.633,-14.345 -3.962,-14.26C-4.701,-14.212 -5.421,-14.373 -6.112,-14.577C-6.851,-14.795 -7.673,-14.683 -8.334,-15.22C-9.54,-16.009 -10.611,-17.027 -11.678,-17.932" style="fill:white;fill-rule:nonzero;"/>
        </g>
        <g transform="matrix(1,0,0,1,375.15,193.291)">
            <path d="M0,-6.752C2.478,-7.385 4.825,-8.346 7.251,-9.133C8.128,-9.433 8.229,-9.554 8.128,-10.437C7.541,-14.345 7.687,-18.449 6.258,-22.153C6.062,-22.496 5.992,-22.853 5.583,-23.038C5.174,-23.298 5.645,-23.734 5.947,-23.833C7.314,-25.002 9.024,-24.651 10.658,-25.03C11.212,-25.172 12.172,-25.199 12.364,-24.478C12.432,-24.166 12.599,-23.866 12.192,-23.652C12.011,-23.557 12.071,-23.378 12.129,-23.227C12.809,-21.024 12.695,-18.677 12.998,-16.399C13.77,-8.605 15.016,-0.762 16.691,6.773C17.139,7.462 16.84,7.831 15.948,8.505C14.637,9.178 13.651,10.278 12.415,11.007C11.339,11.708 11.068,9.719 10.77,9.054C10.345,6.836 10.619,4.602 10.112,2.383C9.852,-0.102 9.003,-2.481 8.865,-4.974C8.884,-5.534 8.579,-5.782 8.072,-5.599C5.777,-4.98 3.624,-3.927 1.307,-3.316C0.907,-3.196 0.779,-3.002 0.837,-2.636C1.396,0.922 2.006,4.515 2.645,8.056C2.913,9.209 3.751,10.574 3.029,11.694C2.786,11.997 2.692,12.259 2.979,12.61C3.161,12.834 2.852,13.555 2.553,13.582C0.782,14.164 -0.693,15.406 -2.304,16.336C-3.146,16.799 -4.239,18.447 -5.148,17.287C-5.737,16.618 -5.289,15.709 -5.824,15.088C-6.594,14.186 -6.518,13.024 -6.443,11.945C-6.729,4.672 -8.729,-2.397 -9.773,-9.519C-10.533,-12.534 -10.832,-15.721 -12.016,-18.569C-12.14,-18.956 -12.353,-19.262 -11.941,-19.617C-11.793,-19.744 -11.818,-20.056 -11.975,-20.211C-12.453,-20.936 -12.46,-21.983 -11.822,-22.628C-11.474,-22.936 -11.075,-23.005 -10.636,-22.866C-8.713,-22.219 -6.729,-21.79 -4.846,-21.02C-3.332,-20.482 -1.651,-19.763 -2.094,-17.931C-1.853,-14.142 -0.674,-10.497 0,-6.752" style="fill:white;fill-rule:nonzero;"/>
        </g>
        <g transform="matrix(1,0,0,1,353.945,194.506)">
            <path d="M0,-5.19C-0.684,-4.724 -0.396,-4.105 -0.771,-3.542C-1.802,-1.432 -2.796,0.668 -3.547,2.888C-3.93,3.995 -4.626,4.935 -4.833,6.108C-4.963,6.518 -4.958,7.032 -5.483,7.224C-5.612,7.271 -5.613,7.373 -5.567,7.482C-5.353,7.987 -5.636,8.415 -5.834,8.82C-6.772,10.923 -8.074,12.903 -8.505,15.193C-8.513,15.419 -8.615,15.603 -8.876,15.641C-9.764,15.718 -9.64,16.524 -9.825,17.164C-10.069,17.82 -10.491,18.062 -11.187,17.951C-11.622,17.881 -11.967,17.641 -11.802,17.069C-11.365,16.036 -12.851,15.808 -12.584,14.717C-12.489,14.108 -12.633,13.445 -12.763,12.825C-12.843,12.442 -12.758,11.986 -13.169,11.684C-13.858,8.757 -14.331,5.624 -14.91,2.629C-15.584,-3.363 -16.703,-9.318 -17.357,-15.295C-17.417,-16.091 -17.553,-16.865 -17.984,-17.562C-18.085,-17.723 -18.334,-17.884 -18.144,-18.113C-17.898,-18.408 -17.735,-18.816 -17.256,-18.833C-16.992,-18.842 -16.649,-18.699 -16.479,-18.889C-14.895,-20.211 -11.808,-19.928 -11.742,-17.43C-11.529,-12.529 -10.188,-7.804 -9.316,-3.012C-9.029,-2.986 -9.049,-3.17 -9.008,-3.32C-8.007,-7.837 -6.193,-12.279 -5.948,-16.916C-5.951,-17.217 -5.745,-17.395 -5.662,-17.642C-5.508,-18.103 -5.656,-18.66 -5.206,-19.035C-5.101,-19.123 -5.247,-19.27 -5.283,-19.392C-5.424,-19.861 -5.216,-20.294 -4.742,-20.343C-2.298,-21.504 -1.567,-21.919 1.156,-22.953C1.624,-23.252 1.769,-22.864 2.011,-22.684C2.312,-22.46 2.271,-22.192 2.038,-21.935C1.93,-21.815 1.935,-21.682 2.028,-21.578C2.368,-21.202 2.415,-20.65 2.824,-20.309C4.233,-11.94 5.674,-3.192 8.136,5.105C8.262,5.452 8.399,5.766 8.662,6.06C9.242,6.708 9.052,7.918 8.32,8.412C6.881,9.653 2.844,9.962 2.583,7.558C2.775,3.236 0.653,-0.911 0,-5.19" style="fill:white;fill-rule:nonzero;"/>
        </g>
        <g transform="matrix(1,0,0,1,311.881,177.305)">
            <path d="M0,31.979C-0.176,31.971 -0.208,32.257 -0.036,32.277C0.139,32.299 0.166,32.015 0,31.979M7.192,18.224C6.781,22.658 7.264,26.857 7.173,31.236C7.269,31.926 6.126,31.876 6.274,32.723C6.294,32.961 6.125,33.264 5.915,33.305C5.278,33.43 4.955,34 4.422,34.254C2.794,34.959 0.756,34.21 -0.902,34.081C-1.175,34.02 -1.431,33.975 -1.593,33.771C-2.049,33.309 -2.693,32.841 -2.709,32.124C-2.238,31.417 -2.712,30.644 -2.536,29.916C-2.356,29.17 -2.262,28.406 -2.099,27.654C-1.924,26.847 -1.754,26.027 -1.956,25.147C-2.168,24.179 -1.645,23.094 -1.741,22.096C-1.727,17.666 -0.876,13.244 -0.85,8.806C-0.781,5.438 -1.047,2.142 -1.254,-1.196C-1.325,-1.399 -1.082,-1.579 -0.889,-1.668C0.83,-2.345 2.889,-2.818 4.684,-2.229C5.086,-2.131 5.187,-1.931 4.93,-1.591C4.581,-1.128 4.686,-0.694 4.729,-0.181C5.017,2.863 4.41,6.042 5.077,9.033C7.437,5.987 9.553,2.75 11.491,-0.547C12.729,-1.808 14.794,-1.168 16.294,-1.94C17.007,-2.421 18.001,-1.99 18.565,-2.708C18.639,-2.828 18.899,-2.859 19.08,-2.881C19.684,-2.98 19.877,-2.301 19.5,-1.913C18.581,-1.544 18.702,-0.098 17.636,-0.07C17.191,-0.006 17.01,0.237 17.079,0.632C17.157,1.078 16.95,1.409 16.626,1.566C16.004,1.868 15.601,2.405 15.203,2.894C12.875,5.345 11.102,8.216 9.418,11.104C9.111,11.544 9.186,11.703 9.589,12.102C10.104,12.751 10.922,13.058 11.478,13.612C12.009,14.546 12.952,15.091 13.687,15.821C14.593,16.818 15.927,17.447 16.847,18.442C17.121,18.855 17.627,18.952 18.016,19.197C19.332,20.04 20.469,21.114 21.763,21.979C22.289,22.29 22.589,22.707 22.537,23.34C22.878,25.847 20.081,25.939 18.025,26.279C17.474,26.294 17.051,26.061 16.792,25.711C13.897,22.733 10.272,21.142 7.192,18.224" style="fill:white;fill-rule:nonzero;"/>
        </g>
        <g transform="matrix(1,0,0,1,305.97,205.896)">
            <path d="M0,-27.263C-0.672,-28.296 -0.579,-35.948 -2.218,-34.874C-2.971,-34.52 -3.59,-33.48 -4.44,-33.7C-4.587,-33.742 -4.733,-33.657 -4.865,-33.537C-13.108,-29.198 -22.438,-26.955 -30.312,-21.923C-30.978,-21.494 -31.428,-20.679 -32.388,-20.767C-32.983,-20.644 -32.756,-19.706 -32.265,-19.488C-31.571,-19.108 -30.701,-19.403 -30.042,-18.934C-28.261,-18.181 -26.317,-17.013 -24.326,-17.587C-22.602,-18.489 -20.725,-19.054 -18.822,-19.481C-18.373,-19.635 -18.184,-19.272 -18.166,-18.875C-18.314,-12.145 -16.497,-5.354 -16.795,1.42C-16.641,2.354 -17.539,8.685 -16.005,7.54C-15.451,7.16 -15.028,6.574 -14.273,6.531C-13.703,6.023 -13.149,5.372 -12.461,4.989C-12.189,4.81 -12.362,4.284 -11.886,4.376C-11.056,3.799 -7.699,1.746 -8.87,0.624C-9.529,0.091 -8.984,-0.812 -9.526,-1.42C-10.369,-3.596 -9.452,-6.138 -9.996,-8.439C-10.455,-11.751 -10.68,-15.115 -10.981,-18.461C-11.143,-19.516 -10.729,-20.574 -11.128,-21.611C-11.175,-21.774 -11.161,-21.894 -11.052,-21.933C-9.371,-22.807 -7.49,-23.241 -5.772,-24.082C-4.501,-24.289 -3.214,-24.465 -2.012,-24.928C-1.469,-25.137 -0.585,-25.044 -0.58,-26.02C-0.233,-26.339 0.289,-26.579 0,-27.263" style="fill:white;fill-rule:nonzero;"/>
        </g>
        <g transform="matrix(1,0,0,1,419.498,206.462)">
            <path d="M0,-36.368C0.351,-36.316 0.328,-36.845 0.619,-36.888C1.704,-36.987 2.683,-38.02 3.771,-37.283C7.192,-36.06 5.195,-31.32 6.146,-28.565C6.764,-22.868 7.653,-17.292 8.455,-11.636C8.449,-11.22 8.313,-10.724 8.795,-10.429C8.899,-7.703 9.346,-4.953 10.246,-2.389C10.264,-2.019 10.205,-1.655 10.542,-1.389C10.487,-0.708 10.845,0.022 10.313,0.646C9.801,1.246 9.198,1.652 8.354,1.577C7.409,1.494 6.498,1.187 5.539,1.189C5.098,1.153 4.595,0.899 4.252,0.636C4.062,0.026 3.577,-0.521 3.72,-1.196C3.961,-2.021 3.089,-2.631 3.638,-3.418C3.772,-3.576 3.81,-4.099 3.679,-4.313C3.475,-5.115 3.127,-5.934 3.435,-6.74C3.464,-8.437 2.973,-10.174 2.982,-11.91C2.332,-17.848 1.259,-23.837 0.672,-29.69C0.967,-31.991 -0.539,-34.131 0,-36.368" style="fill:white;fill-rule:nonzero;"/>
        </g>
        <g transform="matrix(1,0,0,1,265.121,181.995)">
            <path d="M0,-19.048C-0.495,-19.114 -0.935,-19.501 -1.419,-19.496C-2.552,-19.208 -3.739,-19.224 -4.862,-18.892C-5.423,-18.726 -5.98,-18.575 -6.569,-18.682C-7.735,-18.866 -8.712,-18.292 -9.708,-17.858C-10.095,-17.689 -10.468,-17.381 -10.426,-16.81C-10.405,-16.535 -10.537,-16.244 -10.696,-15.991C-11.679,-14.537 -12.464,-12.899 -13.375,-11.441C-14.031,-11.208 -14.241,-10.543 -14.558,-10.061C-15.424,-8.9 -16.089,-7.516 -17,-6.423C-17.751,-5.989 -17.794,-4.97 -18.111,-4.225C-18.219,-3.249 -19.211,-1.363 -19.751,-0.422C-20.061,-0.122 -19.584,0.453 -19.243,0.183C-18.583,-0.561 -17.796,-0.168 -17.061,-0.432C-16.097,-0.633 -15.148,-0.808 -14.188,-1.038C-13.526,-1.265 -12.521,-1.107 -12.001,-1.609C-10.882,-2.59 -10.126,-3.843 -9.181,-4.98C-7.456,-7.705 -4.656,-9.852 -3.498,-12.885C-3.473,-13.178 -3.231,-13.332 -3.02,-13.357C-1.666,-13.571 -2.025,-15.386 -1.099,-16.067C-0.498,-16.656 -0.16,-17.404 0.38,-18.019C0.721,-18.406 0.504,-18.869 0,-19.048" style="fill:white;fill-rule:nonzero;"/>
        </g>
        <g transform="matrix(1,0,0,1,404.383,190.638)">
            <path d="M0,-8.94C1.433,-8.929 2.839,-9.414 4.253,-9.224C7.171,-10.036 6.763,-4.616 6.838,-2.843C6.735,-2.04 5.969,-1.335 5.169,-1.298C1.93,-0.578 -1.388,-0.162 -4.612,0.671C-5.506,0.849 -6.44,0.474 -7.321,1.003C-8.943,1.096 -8.766,-2.763 -9.05,-3.948C-9.108,-4.605 -9.34,-5.187 -9.645,-5.743C-9.784,-5.998 -9.859,-6.2 -9.563,-6.316C-8.894,-6.664 -10.16,-7.466 -9.675,-7.969C-9.472,-8.208 -9.112,-8.165 -8.845,-8.065C-8.069,-7.774 -7.388,-7.929 -6.757,-8.417C-6.016,-8.788 -5.123,-8.408 -4.33,-8.41C-2.847,-8.358 -1.479,-9 0,-8.94" style="fill:white;fill-rule:nonzero;"/>
        </g>
        <g transform="matrix(1,0,0,1,260.88,189.607)">
            <path d="M0,15.204C-0.606,15.762 -1.273,16.599 -2.171,16.624C-3.033,16.362 -4.056,17.257 -4.761,16.666C-5.124,16.268 -5.552,15.953 -5.248,15.25C-5.068,14.835 -5.386,14.319 -5.55,13.877C-5.773,12.768 -6.446,11.537 -6.211,10.429C-6.058,10.034 -6.165,9.541 -6.768,9.326C-6.026,9.142 -6.276,8.458 -6.184,7.955C-6.315,7.927 -6.431,7.869 -6.405,7.715C-6.388,7.612 -6.291,7.56 -6.183,7.549C-6.083,7.235 -6.487,6.976 -6.196,6.742C-6.357,6.289 -5.942,5.808 -6.019,5.386C-6.221,4.673 -5.393,5.035 -5.455,4.389C-5.358,3.536 -4.582,2.798 -3.954,2.214C-3.364,1.643 -2.831,0.95 -1.917,1.038C-0.124,1.909 1.91,3.14 2.375,5.236C2.306,5.788 2.872,5.894 2.714,6.483C2.688,6.957 2.602,7.444 2.962,7.851C3.008,7.903 3.043,7.961 3.007,8.06C2.483,9.62 2.655,11.42 1.562,12.768C1.046,13.661 0.92,14.567 0,15.204M10.65,7.277C10.749,7.21 10.814,7.183 10.658,7.117C10.404,6.586 10.913,5.986 10.502,5.519C10.164,4.601 10.459,3.456 10.021,2.641C9.254,1.144 8.727,-0.502 7.292,-1.543C6.933,-1.802 6.564,-2.106 6.384,-2.522C3.663,-8.228 -4.154,-7.349 -8.666,-4.226C-12.098,-1.993 -13.611,1.908 -14.931,5.602C-18.333,14.134 -13.796,23.101 -4.108,23.381C-1.579,23.432 1.234,23.363 3.251,21.734C3.544,21.458 4.015,21.612 4.25,21.288C4.623,20.871 5.114,20.599 5.533,20.238C6.335,19.641 6.766,18.861 7.502,18.213C9.455,14.972 11.105,11.131 10.65,7.277" style="fill:white;fill-rule:nonzero;"/>
        </g>
    </g>
</svg>
